<svg width="195" height="47" viewBox="0 0 195 47" fill="none" xmlns="http://www.w3.org/2000/svg">
<g clip-path="url(#clip0_23_62)">
<path d="M0.162086 33.2726H5.65709V33.4863C5.65709 34.2612 5.86193 34.8 6.27606 35.1072C6.68574 35.4145 7.41603 35.5659 8.45803 35.5659H9.8919C10.7602 35.5659 11.3703 35.4501 11.7221 35.2141C12.0694 34.9781 12.2475 34.564 12.2475 33.9717V33.041C12.2475 32.5334 12.1095 32.1683 11.8334 31.9501C11.5573 31.7319 10.9294 31.5626 9.95423 31.4469L5.3053 30.9437C3.57308 30.7522 2.30843 30.2089 1.51135 29.3139C0.714258 28.4188 0.313487 27.0918 0.313487 25.3329V24.0148C0.313487 23.0218 0.469341 22.1312 0.785504 21.3519C1.10167 20.5726 1.56032 19.9359 2.16148 19.4371C2.67803 19.0052 3.3059 18.7024 4.04065 18.5243C4.77539 18.3461 5.87528 18.2571 7.34032 18.2571H10.7691C12.9021 18.2571 14.5319 18.689 15.663 19.5484C16.7896 20.4079 17.3551 21.6547 17.3551 23.2801V24.7451H11.8601V24.5136C11.8601 23.8723 11.7087 23.427 11.4059 23.1777C11.1031 22.9283 10.5598 22.8036 9.77611 22.8036H8.45803C7.54962 22.8036 6.9262 22.9105 6.58332 23.1242C6.24489 23.3379 6.07567 23.712 6.07567 24.2375V25.1281C6.07567 25.9118 6.84604 26.3927 8.38678 26.5619L12.6216 27.034C14.4473 27.2432 15.8144 27.7776 16.7094 28.6326C17.6089 29.4876 18.0587 30.6899 18.0587 32.244V34.2968C18.0587 36.0646 17.5065 37.4807 16.4066 38.5449C15.3067 39.6048 13.8283 40.1391 11.9714 40.1391H7.30915C4.81101 40.1391 2.99865 39.7072 1.86314 38.8478C0.727621 37.9883 0.162086 36.6168 0.162086 34.7421V33.2726Z" fill="white"/>
<path d="M21.8393 39.8853V18.5154H26.6307V26.9226C26.84 26.1478 27.2942 25.56 27.9889 25.1637C28.6836 24.7674 29.6053 24.567 30.7498 24.567C32.5488 24.567 33.7912 24.9544 34.4814 25.7203C35.1716 26.4862 35.5145 27.9379 35.5145 30.062V39.8853H30.723V31.1307C30.723 30.0308 30.5939 29.3184 30.3445 28.9933C30.0907 28.6682 29.4985 28.5035 28.5722 28.5035C27.8375 28.5035 27.3298 28.6816 27.0493 29.0423C26.7732 29.403 26.6352 30.1911 26.6352 31.4157V39.8853H21.8393Z" fill="white"/>
<path d="M39.9185 39.8853V24.7763H44.5674L44.5095 26.9271C44.8925 26.0944 45.3689 25.4932 45.9434 25.1281C46.5178 24.7629 47.2615 24.5759 48.1832 24.5759C49.7062 24.5759 50.7615 24.9633 51.3538 25.7382C51.946 26.513 52.2444 27.9558 52.2444 30.0709V31.4202H47.7379V30.4583C47.7379 29.7325 47.6311 29.2249 47.4129 28.9354C47.1947 28.646 46.8073 28.5035 46.2417 28.5035C45.6495 28.5035 45.2443 28.6727 45.0305 29.0067C44.8168 29.3406 44.7055 30.1466 44.7055 31.4157V39.8853H39.9185Z" fill="white"/>
<path d="M55.1388 22.2782V18.5198H60.0193V22.2782H55.1388ZM55.1388 39.8853V24.7763H60.0193V39.8853H55.1388Z" fill="white"/>
<path d="M64.6059 39.8853V24.7763H69.2548L69.197 26.9271C69.6289 26.0944 70.1811 25.4932 70.8535 25.1281C71.5303 24.7585 72.4165 24.5759 73.5164 24.5759C75.3154 24.5759 76.5578 24.9633 77.248 25.7293C77.9382 26.4952 78.2811 27.9468 78.2811 30.0709V39.8853H73.4897V31.1307C73.4897 30.0309 73.3605 29.3184 73.1111 28.9933C72.8573 28.6682 72.2651 28.5035 71.3388 28.5035C70.6041 28.5035 70.0965 28.6816 69.8159 29.0423C69.5398 29.403 69.4018 30.1912 69.4018 31.4157V39.8853H64.6059Z" fill="white"/>
<path d="M82.6851 39.8853V18.5154H87.4765V30.4539H87.8372L90.7806 24.7718H96.2178L92.0987 32.0347L97.0371 39.8853H91.4263L87.8372 33.8292H87.4765V39.8853H82.6851Z" fill="white"/>
<path d="M100.208 18.5243H104.086L111.402 37.5653L118.661 18.5243H122.571V39.8853H120.219V20.5192L112.841 39.8853H109.933L102.559 20.5192V39.8853H100.208V18.5243Z" fill="white"/>
<path d="M133.151 40.0946C128.742 40.0946 127.184 39.2441 127.184 35.3032C127.184 33.3929 127.447 32.1594 128.391 31.3668C129.215 30.6899 130.711 30.5162 133.035 30.5162C135.502 30.5162 137.003 30.8413 137.795 31.9857V29.3718C137.795 26.6956 137.003 26.4328 133.476 26.4328C130.947 26.4328 130.007 26.7579 129.98 28.5213H127.745V28.1695C127.745 25.4354 129.477 24.5848 133.329 24.5848C136.152 24.5848 137.942 24.7629 138.824 25.4354C139.969 26.317 140.031 27.5238 140.031 29.3139V39.8853H138.005L137.916 38.3001C137.176 39.6226 135.649 40.0946 133.151 40.0946ZM137.795 34.4482C137.795 32.9476 136.268 32.3598 133.213 32.3598C130.39 32.3598 129.54 32.8585 129.54 35.036C129.54 37.4451 130.363 38.0062 133.449 38.0062C136.357 38.0062 137.8 37.2714 137.8 36.0379V34.4482H137.795Z" fill="white"/>
<path d="M144.965 24.7808H147.111V26.8381C147.846 25.2795 149.431 24.5759 152.05 24.5759C156.075 24.5759 157.398 26.0454 157.398 29.9819V39.8853H155.162V30.4539C155.162 27.5149 154.632 26.6065 151.751 26.6065C148.607 26.6065 147.196 27.9869 147.196 31.104V39.8853H144.96V24.7808H144.965Z" fill="white"/>
<path d="M157.295 1.38022C157.202 1.71865 157.104 2.07934 157.006 2.44004C156.881 2.9076 156.761 3.37516 156.623 3.83827C156.529 4.16334 156.262 4.35037 155.959 4.32811C155.656 4.30584 155.42 4.0921 155.349 3.77148C155.336 3.70469 155.331 3.64234 155.349 3.57555C155.576 2.7651 155.79 1.95466 156.026 1.14867C156.115 0.83696 156.364 0.676652 156.658 0.690011C156.952 0.70337 157.184 0.890394 157.268 1.18875C157.277 1.23328 157.282 1.29561 157.295 1.38022Z" fill="white"/>
<path d="M159.232 5.93562C158.978 5.93562 158.787 5.82428 158.658 5.60608C158.529 5.38789 158.515 5.14297 158.662 4.93813C159.152 4.25237 159.646 3.57552 160.158 2.90757C160.377 2.62257 160.768 2.60922 161.049 2.83187C161.307 3.03226 161.374 3.42857 161.169 3.71356C160.702 4.3726 160.221 5.01829 159.74 5.66843C159.615 5.83765 159.446 5.94007 159.232 5.93562Z" fill="white"/>
<path d="M152.771 3.76703C152.815 4.34146 152.593 4.65316 152.25 4.70215C151.898 4.75558 151.573 4.53739 151.515 4.15444C151.399 3.38407 151.297 2.6137 151.208 1.84333C151.168 1.5049 151.439 1.19763 151.764 1.1531C152.107 1.10857 152.428 1.33123 152.481 1.69193C152.597 2.44448 152.691 3.19704 152.771 3.76703Z" fill="white"/>
<path d="M194.113 28.2941C193.988 26.8291 193.685 25.3997 193.191 24.0104C191.993 20.6795 189.971 17.9899 187.108 15.9816C184.654 14.2583 181.92 13.3098 178.941 13.1005C177.427 12.9936 175.935 13.1183 174.457 13.43C174.266 13.4701 174.176 13.4256 174.083 13.2697C173.638 12.5305 173.192 11.7869 172.734 11.0566C171.99 9.87208 170.605 9.5381 169.425 10.2595C168.864 10.6024 168.307 10.9586 167.755 11.3148C167.617 11.4039 167.546 11.4084 167.444 11.2614C167.172 10.8874 166.82 10.5979 166.41 10.3842C165.275 9.79638 164.077 9.80083 162.857 9.99677C162.006 10.1348 161.192 10.4109 160.368 10.6514C159.816 10.8117 159.254 10.8785 158.684 10.8161C157.696 10.7092 157.086 10.1215 156.819 9.17741C156.632 8.52728 156.511 7.86377 156.792 7.19137C156.89 6.95981 156.81 6.71936 156.632 6.54569C156.454 6.37202 156.24 6.28742 155.977 6.38093C155.643 6.50116 155.518 6.77724 155.443 7.08004C155.229 7.94392 155.336 8.79445 155.59 9.62716C156.075 11.2124 157.353 12.152 158.983 12.1654C159.816 12.1743 160.604 11.9828 161.392 11.7334C162.501 11.3816 163.623 11.11 164.798 11.2525C165.364 11.3193 165.881 11.4974 166.304 11.916C166.45 12.063 166.464 12.1476 166.268 12.2678C165.685 12.624 165.11 12.9936 164.536 13.3588C163.382 14.0935 163.035 15.5452 163.739 16.7252C164.188 17.4823 164.647 18.2304 165.115 18.9785C165.208 19.1254 165.217 19.2234 165.101 19.3703C164.665 19.9136 164.273 20.4969 163.921 21.1025C162.572 23.4448 161.793 25.9652 161.623 28.686C161.525 30.2624 161.641 31.8209 162.002 33.3483C162.995 37.592 165.257 40.9763 168.806 43.4165C171.54 45.3001 174.591 46.213 177.895 46.2397C178.621 46.2397 179.346 46.1997 180.063 46.0972C182.29 45.7766 184.374 45.0374 186.302 43.8485C188.635 42.4102 190.501 40.5043 191.89 38.113C192.928 36.3273 193.609 34.4126 193.948 32.3686C194.153 31.0194 194.228 29.6612 194.113 28.2941ZM177.85 38.6162C172.979 38.6162 169.06 34.5996 169.064 29.6122C169.069 24.6961 173.019 20.684 177.859 20.684C182.753 20.684 186.663 24.6872 186.663 29.6924C186.667 34.6263 182.722 38.6206 177.85 38.6162Z" fill="white"/>
<path d="M177.868 22.0689C173.749 22.0644 170.418 25.4665 170.418 29.6657C170.418 33.8248 173.767 37.2447 177.841 37.2491C181.96 37.2536 185.313 33.8559 185.313 29.6701C185.318 25.462 181.996 22.0689 177.868 22.0689ZM181.404 34.2256C181.524 34.4037 181.657 34.5773 181.662 34.8133C181.671 35.1429 181.497 35.4056 181.199 35.508C180.927 35.6015 180.562 35.5169 180.442 35.2408C180.259 34.8312 180.028 34.7955 179.605 34.8579C178.291 35.0538 177.258 34.515 176.514 33.4017C176.278 33.0455 176.367 32.6136 176.697 32.4087C177.026 32.1994 177.409 32.2885 177.645 32.6403C177.904 33.0321 178.238 33.3171 178.683 33.4507C179.427 33.6778 180.206 33.375 180.598 32.7204C181.007 32.0347 180.914 31.1129 180.375 30.5207C179.761 29.8438 178.91 29.7147 178.131 30.1733C177.659 30.4494 177.151 30.6097 176.599 30.6008C175.299 30.5518 174.319 29.9551 173.758 28.7617C173.188 27.5594 173.326 26.3927 174.145 25.3374C174.297 25.1414 174.323 25.0123 174.181 24.8075C174.007 24.5536 174.038 24.2375 174.217 24.0104C174.399 23.7833 174.671 23.6987 174.951 23.7833C175.143 23.8411 175.281 23.9747 175.365 24.1529C175.446 24.3221 175.539 24.3622 175.731 24.3132C177.026 23.9747 178.456 24.5803 179.128 25.7337C179.28 25.9964 179.297 26.2591 179.128 26.5174C178.968 26.7668 178.723 26.8514 178.438 26.8069C178.206 26.7712 178.068 26.6065 177.944 26.4239C177.481 25.7426 176.701 25.4442 175.98 25.6669C175.294 25.8762 174.827 26.4862 174.778 27.2299C174.729 27.9958 175.183 28.7617 175.882 29.0645C176.407 29.2961 176.933 29.2872 177.423 28.9844C179.342 27.791 181.858 29.0022 182.174 31.3578C182.299 32.2929 182.054 33.1435 181.43 33.8559C181.324 33.994 181.306 34.0831 181.404 34.2256Z" fill="white"/>
</g>
<defs>
<clipPath id="clip0_23_62">
<rect width="194.005" height="45.5505" fill="white" transform="translate(0.162086 0.68924)"/>
</clipPath>
</defs>
</svg>
