<svg width="180" height="44" viewBox="0 0 180 44" fill="none" xmlns="http://www.w3.org/2000/svg">
<g clip-path="url(#clip0_1_138)">
<mask id="mask0_1_138" style="mask-type:luminance" maskUnits="userSpaceOnUse" x="0" y="0" width="180" height="44">
<path d="M180 0H0V43.8202H180V0Z" fill="white"/>
</mask>
<g mask="url(#mask0_1_138)">
<path d="M37.0196 23.4653C36.831 21.6762 36.2382 20.3798 35.5108 19.3944C35.1336 18.9018 34.7295 18.5128 34.3254 18.1758C34.3254 18.1758 34.3254 18.1758 34.2984 18.1758C33.0322 17.1386 31.7389 16.8534 31.6042 16.8274C40.6029 9.59326 34.9989 2.7998 34.7834 2.48865C33.7865 1.47741 32.3586 0.85512 30.9576 0.569897C27.1319 -0.233905 23.1983 0.0772438 19.3187 -0.000543521C15.412 0.0772438 11.4785 -0.182047 7.57193 0.284677C5.38961 0.569897 2.93787 1.24405 1.69854 3.16281C0.243668 5.4705 0.216726 8.27083 0.028131 10.8638C0.028131 15.0902 -0.0257531 19.2907 0.0550731 23.5172C0.324494 27.0176 0.836396 31.0885 3.96167 33.3443C7.35641 35.5742 11.6941 35.4964 15.6545 35.652C16.9208 37.13 18.6451 38.2449 20.5849 38.6857C19.1301 36.7929 17.9716 34.563 17.9716 32.1516C17.9177 30.1551 18.7259 28.2103 19.9652 26.6287C20.558 25.7989 21.3123 24.9433 21.6626 23.9839V17.3201H15.6007V26.7065C13.8494 26.6805 12.1251 26.0323 10.805 24.8914C7.3833 22.0652 6.14398 17.5275 5.95539 13.353C5.33572 8.24494 10.5086 3.83696 15.6007 3.83696C15.6007 6.68917 15.6007 9.5673 15.6007 12.4195H21.6626V3.8629C25.8656 4.01847 30.2302 6.79287 31.0115 10.9416C31.4695 15.1162 29.9608 19.3166 27.3744 22.6615C25.2998 25.4878 22.4709 27.7177 20.6658 30.7255C19.7228 32.2034 19.588 34.0184 19.9383 35.7038C23.36 35.7298 26.8085 35.7816 30.2033 35.2631C32.17 34.9519 34.2446 34.2 35.3492 32.5146C35.6455 32.0738 35.8611 31.5811 36.0497 31.1144C36.1575 30.7255 36.2922 30.3106 36.4269 29.8698V29.8439C36.8041 28.3141 36.8579 26.6805 36.9926 25.1248C36.9926 24.8136 36.9926 24.5024 37.0196 24.1913C37.0196 23.9061 37.0196 23.6728 37.0196 23.4653Z" fill="white"/>
<path d="M21.2304 43.8203C22.3166 43.8203 23.1971 42.9729 23.1971 41.9275C23.1971 40.8821 22.3166 40.0347 21.2304 40.0347C20.1441 40.0347 19.2636 40.8821 19.2636 41.9275C19.2636 42.9729 20.1441 43.8203 21.2304 43.8203Z" fill="white"/>
<path d="M54.5225 26.3118V20.763H47.4906V26.3118H44.7964V12.5693H47.4906V18.3516H54.5225V12.5693H57.1897V26.3118H54.5225Z" fill="white"/>
<path d="M62.4704 16.613V21.6692C62.4704 23.1471 63.3056 24.262 64.8952 24.262C66.4309 24.262 67.4548 23.0175 67.4548 21.5395V16.613H69.933V26.3105H67.6969L67.5357 24.9881C66.4847 25.9734 65.5418 26.4401 64.1138 26.4401C61.716 26.4401 59.9378 24.7029 59.9378 21.6951V16.613H62.4704Z" fill="white"/>
<path d="M82.9463 12.5667V26.2832H80.6292L80.4674 24.9349C79.6861 26.1018 78.447 26.4907 77.2348 26.4907C74.2712 26.4907 72.062 24.5978 72.062 21.4345C72.062 18.0896 74.2443 16.3783 77.1809 16.3783C78.2312 16.3783 79.9018 16.9228 80.4944 17.9341V12.5667H82.9463ZM74.5402 21.4604C74.5402 23.1458 75.807 24.3126 77.396 24.3126C78.9587 24.3126 80.3063 23.2236 80.3063 21.4604C80.3063 19.775 78.9587 18.6341 77.396 18.6341C75.807 18.6082 74.5402 19.6973 74.5402 21.4604Z" fill="white"/>
<path d="M95.9865 12.5667V26.2832H93.6694L93.5076 24.9349C92.7263 26.1018 91.4872 26.4907 90.2744 26.4907C87.3108 26.4907 85.1016 24.5978 85.1016 21.4345C85.1016 18.0896 87.2838 16.3783 90.2205 16.3783C91.2715 16.3783 92.942 16.9228 93.5346 17.9341V12.5667H95.9865ZM87.5535 21.4604C87.5535 23.1458 88.8196 24.3126 90.4092 24.3126C91.9719 24.3126 93.3189 23.2236 93.3189 21.4604C93.3189 19.775 91.9719 18.6341 90.4092 18.6341C88.8196 18.6082 87.5535 19.6973 87.5535 21.4604Z" fill="white"/>
<path d="M101.213 12.5667V26.2832H98.7344V12.5667H101.213Z" fill="white"/>
<path d="M105.928 22.3173C106.089 23.51 107.167 24.3916 108.918 24.3916C109.834 24.3916 111.047 24.0545 111.613 23.4841L113.202 24.988C112.151 26.0511 110.401 26.5697 108.865 26.5697C105.389 26.5697 103.342 24.4953 103.342 21.4098C103.342 18.4538 105.416 16.3536 108.676 16.3536C112.044 16.3536 114.146 18.3502 113.768 22.3432H105.928V22.3173ZM111.397 20.3207C111.235 19.0762 110.212 18.4279 108.784 18.4279C107.436 18.4279 106.332 19.0502 105.955 20.3207H111.397Z" fill="white"/>
<path d="M127.67 16.5348C127.67 17.5979 127.131 18.6091 125.811 19.1796C127.482 19.6722 128.101 21.3835 128.101 22.2392C128.101 25.2988 125.703 26.2841 122.767 26.2841C120.504 26.2841 118.267 26.2841 116.004 26.2841V12.5417C118.24 12.5417 120.504 12.5417 122.767 12.5417C125.569 12.5417 127.67 13.7604 127.67 16.5348ZM118.645 18.0646H122.767C124.464 18.0646 125.003 17.3645 125.003 16.5866C125.003 15.9643 124.464 14.9012 122.767 14.9012H118.645V18.0646ZM118.645 23.8727H122.767C123.872 23.8727 125.434 23.5097 125.434 22.2133C125.434 20.9687 123.872 20.3205 122.767 20.3205H118.645V23.8727Z" fill="white"/>
<path d="M140.118 21.4611C140.118 24.2614 138.151 26.5173 134.864 26.5173C131.604 26.5173 129.637 24.2614 129.637 21.4611C129.637 18.6867 131.631 16.4049 134.837 16.4049C138.07 16.4308 140.118 18.6867 140.118 21.4611ZM132.143 21.4611C132.143 22.9391 133.058 24.3133 134.891 24.3133C136.722 24.3133 137.639 22.9391 137.639 21.4611C137.639 20.0091 136.588 18.583 134.891 18.583C133.085 18.6089 132.143 20.0091 132.143 21.4611Z" fill="white"/>
<path d="M150.14 16.6122H152.538V26.2838H150.193L150.059 24.8577C149.493 25.9986 147.903 26.5431 146.799 26.569C143.809 26.595 141.626 24.8318 141.626 21.435C141.626 18.0902 143.943 16.353 146.88 16.3789C148.227 16.3789 149.52 16.9753 150.086 17.9606L150.14 16.6122ZM144.105 21.461C144.105 23.302 145.425 24.4169 147.096 24.4169C151.002 24.4169 151.002 18.5569 147.096 18.5569C145.425 18.531 144.105 19.5941 144.105 21.461Z" fill="white"/>
<path d="M157.522 16.6129L157.71 17.7278C158.492 16.5351 159.516 16.3536 160.54 16.3536C161.59 16.3536 162.587 16.7425 163.126 17.287L161.995 19.3614C161.482 18.9465 161.024 18.7391 160.189 18.7391C158.896 18.7391 157.684 19.4132 157.684 21.2023V26.3103H155.205V16.6129H157.522Z" fill="white"/>
<path d="M174.576 12.5667V26.2832H172.259L172.098 24.9349C171.316 26.1018 170.077 26.4907 168.865 26.4907C165.901 26.4907 163.691 24.5978 163.691 21.4345C163.691 18.0896 165.874 16.3783 168.811 16.3783C169.861 16.3783 171.532 16.9228 172.124 17.9341V12.5667H174.576ZM166.17 21.4604C166.17 23.1458 167.436 24.3126 169.026 24.3126C170.589 24.3126 171.936 23.2236 171.936 21.4604C171.936 19.775 170.589 18.6341 169.026 18.6341C167.436 18.6082 166.17 19.6973 166.17 21.4604Z" fill="white"/>
</g>
</g>
<defs>
<clipPath id="clip0_1_138">
<rect width="180" height="43.8202" fill="white"/>
</clipPath>
</defs>
</svg>
