<svg width="170" height="43" viewBox="0 0 170 43" fill="none" xmlns="http://www.w3.org/2000/svg">
<g clip-path="url(#clip0_1_2)">
<path d="M52.0097 12.3682H57.9035V16.634V32.9777H52.0097V16.634H49.5234V12.3682H52.0097Z" fill="white"/>
<path d="M80.0148 20.3823V32.9399H74.1589V20.7357C74.1589 18.3883 73.2628 16.9117 70.9154 16.9117C68.3281 16.9117 67.1923 18.729 67.1923 21.3289V32.9399H61.2858V12.3177H65.7914L66.2079 14.9807C67.6845 12.9109 70.0067 11.9391 72.6192 11.9391C77.5791 11.9391 80.0148 15.3467 80.0148 20.3823Z" fill="white"/>
<path d="M163.917 12.3682H170C168.965 15.7758 163.765 38.0639 161.001 40.7142C158.238 43.3519 155.612 43.0364 152.053 42.3927L152.785 38.1774C157.973 38.7706 158.162 37.6852 158.982 32.9777H156.256L150.211 12.3682H156.483L160.03 29.0527L163.917 12.3682Z" fill="white"/>
<path d="M134.839 12.3682H134.852V16.634H134.839V32.9777H128.932V16.634H126.459V12.3682H128.932H134.839Z" fill="white"/>
<path d="M149.668 27.7402L150.955 32.0059C150.236 32.5234 149.403 32.9146 148.444 33.2049C147.485 33.491 146.53 33.634 145.579 33.634C141.25 33.6088 139.092 31.1225 139.092 26.1752V16.634H136.278V15.17L143.522 5.91908H144.986V12.3682H149.542L148.911 16.634H144.986V26.0995C144.986 27.0587 145.137 27.7402 145.428 28.1693C145.731 28.5731 146.206 28.7751 146.854 28.7751C147.523 28.7751 148.924 28.1693 149.668 27.7402Z" fill="white"/>
<path d="M90.023 12.3304H102.883V32.9399H96.9896V16.5961H90.023V32.9399H84.5583V16.5961H81.0876V12.3304H84.5583C84.6214 8.87231 84.6719 7.585 87.2465 5.11136C90.1871 2.28434 97.5954 2.62509 100.877 4.29102L99.5895 8.55679C98.1128 7.93838 95.4247 7.78693 94.0616 7.78693C91.9792 7.78693 90.023 8.59466 90.023 10.778V12.3304Z" fill="white"/>
<path d="M125.298 20.3823V32.9399H119.429V20.7357C119.429 18.3883 118.533 16.9117 116.186 16.9117C113.598 16.9117 112.463 18.729 112.463 21.3289V32.9399H106.556V12.3177H111.062L111.478 14.9807C112.967 12.9109 115.277 11.9391 117.889 11.9391C122.849 11.9391 125.298 15.3467 125.298 20.3823Z" fill="white"/>
<path fill-rule="evenodd" clip-rule="evenodd" d="M32.6748 37.6095C27.6266 35.7921 25.784 31.8671 24.7743 24.5976C19.3727 26.1373 14.9681 29.9235 11.4343 33.167C7.98887 36.3348 5.40164 38.9725 2.89013 37.8367C-5.21232 34.1641 4.84633 3.01633 19.6377 0.126206C27.98 -0.933928 29.7721 12.8478 30.5924 19.0824C55.0512 18.0854 46.2168 42.4685 32.6748 37.6095ZM21.0891 7.5219C20.4202 6.77728 19.6377 6.96659 18.6154 7.5219C11.4469 11.51 4.39199 34.2272 8.46845 30.4536C10.2101 28.8508 16.9748 22.9317 24.3957 20.395C24.585 19.5494 23.5249 10.2858 21.0891 7.5219ZM31.173 23.7899C31.173 31.1351 36.4989 34.8456 39.3385 29.5702C41.219 24.7112 35.9688 23.3482 31.173 23.7899Z" fill="white"/>
</g>
<defs>
<clipPath id="clip0_1_2">
<rect width="170" height="42.9102" fill="white"/>
</clipPath>
</defs>
</svg>
