<svg width="132" height="32" viewBox="0 0 132 32" fill="none" xmlns="http://www.w3.org/2000/svg">
<g clip-path="url(#clip0_23_51)">
<path d="M14.9664 11.6787C15.6789 12.4001 16.0396 13.2551 16.0396 14.2526C16.0396 15.25 15.6833 16.0916 14.9753 16.7863C14.2673 17.481 13.4034 17.8239 12.3837 17.8239H10.4199V22.2902H8.37598V10.6011H12.4015C13.3945 10.6011 14.2539 10.9618 14.9664 11.6787ZM10.4199 12.645V15.9402H12.3837C12.8379 15.9402 13.2164 15.771 13.5192 15.4371C13.8309 15.0897 13.9912 14.6934 13.9912 14.2526C13.9912 13.8073 13.8353 13.4288 13.5281 13.117C13.2208 12.8009 12.8423 12.645 12.4015 12.645H10.4199Z" fill="white"/>
<path d="M22.5009 20.2463H27.6619V22.2902H20.4525V10.6011H22.4964V20.2463H22.5009Z" fill="white"/>
<path d="M39.8542 20.0815H34.5774L33.669 22.2902H31.4113L36.2028 10.6011H38.2467L42.9891 22.2902H40.7493L39.8542 20.0815ZM39.0928 18.1801L37.227 13.6158L35.3611 18.1801H39.0928Z" fill="white"/>
<path d="M54.99 18.8481V10.6011H57.0339V22.2902H54.99L49.161 14.0433V22.2902H47.1171V10.6011H49.161L54.99 18.8481Z" fill="white"/>
<path d="M63.9494 20.2463H69.1104V22.2902H61.901V10.6011H63.945V20.2463H63.9494Z" fill="white"/>
<path d="M85.3016 16.4434C85.3238 17.5478 85.0477 18.5942 84.4733 19.5783C83.8989 20.5624 83.124 21.3417 82.1444 21.9072C81.1647 22.4772 80.1227 22.7489 79.0184 22.7266C77.914 22.7489 76.8676 22.4728 75.8835 21.9072C74.8993 21.3373 74.1201 20.5624 73.5545 19.5783C72.9846 18.5942 72.7129 17.5478 72.7352 16.4434C72.7129 15.3391 72.989 14.2971 73.5545 13.3174C74.1245 12.3378 74.8993 11.5629 75.8835 10.9885C76.8676 10.4141 77.914 10.138 79.0184 10.1602C80.7061 10.1291 82.1845 10.7436 83.4491 12.0127C84.7182 13.2773 85.3327 14.7557 85.3016 16.4434ZM74.7791 16.4434C74.7569 17.5923 75.171 18.5942 76.0215 19.4537C76.872 20.3131 77.8695 20.7361 79.0184 20.7138C80.1672 20.7361 81.1647 20.3175 82.0152 19.4537C82.8658 18.5942 83.2799 17.5878 83.2576 16.4434C83.2799 15.2945 82.8658 14.2926 82.0152 13.4332C81.1647 12.5738 80.1672 12.1552 79.0184 12.173C77.8695 12.1507 76.872 12.5693 76.0215 13.4332C75.171 14.2926 74.7569 15.299 74.7791 16.4434Z" fill="white"/>
<path d="M100.468 15.9269V20.4422C99.2439 21.9696 97.6052 22.7311 95.5479 22.7311C94.4436 22.7533 93.3971 22.4772 92.413 21.9117C91.4289 21.3417 90.6496 20.5669 90.0841 19.5828C89.5141 18.5987 89.2425 17.5522 89.2647 16.4479C89.2425 15.3435 89.5185 14.3015 90.0841 13.3219C90.6541 12.3422 91.4289 11.5674 92.413 10.993C93.3971 10.4185 94.4436 10.1424 95.5479 10.1647C97.2267 10.1647 98.6695 10.7391 99.8851 11.888L98.4424 13.2996C97.6853 12.5738 96.719 12.2131 95.5524 12.2131C94.3946 12.1908 93.3927 12.6005 92.5466 13.4466C91.7005 14.2926 91.2908 15.2901 91.3131 16.4523C91.2908 17.6101 91.705 18.612 92.5466 19.4581C93.3927 20.3042 94.3901 20.7139 95.5524 20.6916C96.8393 20.6916 97.7967 20.3754 98.4245 19.7476V17.8328H95.5034V15.9313H100.468V15.9269Z" fill="white"/>
<path d="M106.943 22.2902H104.899V10.6011H106.943V22.2902Z" fill="white"/>
<path d="M120.6 19.467L122.306 20.4556C121.776 21.1903 121.099 21.7558 120.284 22.1433C119.465 22.5307 118.592 22.7266 117.661 22.7266C116.557 22.7489 115.511 22.4728 114.527 21.9072C113.542 21.3373 112.763 20.5624 112.198 19.5783C111.628 18.5942 111.356 17.5478 111.378 16.4434C111.356 15.3391 111.632 14.2971 112.198 13.3174C112.768 12.3378 113.542 11.5629 114.527 10.9885C115.511 10.4141 116.557 10.138 117.661 10.1602C118.592 10.1602 119.465 10.3562 120.284 10.7436C121.099 11.131 121.776 11.6965 122.306 12.4313L120.6 13.4198C119.875 12.6094 118.895 12.2042 117.661 12.2042C116.513 12.1819 115.515 12.596 114.665 13.4465C113.814 14.2971 113.4 15.2945 113.422 16.4434C113.4 17.5923 113.814 18.5898 114.665 19.4403C115.515 20.2908 116.513 20.7049 117.661 20.6827C118.895 20.6827 119.875 20.2775 120.6 19.467Z" fill="white"/>
<path d="M130.166 1.41901V30.4659H1.67866V1.41901H130.166ZM131.056 0.528412H0.788063V31.3565H131.056V0.528412Z" fill="white"/>
</g>
<defs>
<clipPath id="clip0_23_51">
<rect width="130.268" height="30.8281" fill="white" transform="translate(0.788063 0.528412)"/>
</clipPath>
</defs>
</svg>
