<svg width="228" height="30" viewBox="0 0 228 30" fill="none" xmlns="http://www.w3.org/2000/svg">
<g clip-path="url(#clip0_28_4)">
<path d="M54.3415 11.5463C54.3415 13.2398 53.8274 14.4991 52.7993 15.3244C51.7712 16.1496 50.337 16.5622 48.4965 16.562H45.5807V23.4048H42.898V6.49225H48.4705C50.328 6.49225 51.7709 6.91748 52.7993 7.76793C53.8277 8.61837 54.3418 9.87782 54.3415 11.5463ZM51.6588 11.5075C51.6588 10.6394 51.3758 9.98822 50.81 9.55386C50.2441 9.11951 49.473 8.9024 48.4965 8.90256H45.5807V14.1515H48.4965C49.473 14.1515 50.2441 13.9344 50.81 13.5002C51.3758 13.066 51.6588 12.4018 51.6588 11.5075Z" fill="white"/>
<path d="M70.2843 14.1902C69.9715 14.0374 69.6436 13.918 69.3058 13.8339C68.9298 13.747 68.5447 13.7057 68.1589 13.7109C67.589 13.7069 67.0223 13.7966 66.4816 13.9766C65.9784 14.1423 65.5165 14.414 65.1273 14.7735C64.736 15.1445 64.4327 15.5985 64.2397 16.102C64.0154 16.7047 63.9077 17.3445 63.9222 17.9874V20.9942H66.6307V23.4038H58.5042V20.9942H61.2386V13.7496H58.5037V11.3263H63.921V14.3591C64.362 13.1496 65.0121 12.2942 65.8714 11.7929C66.8073 11.2725 67.8658 11.013 68.9363 11.0414C69.328 11.0434 69.7185 11.0824 70.1028 11.1579C70.518 11.2388 70.9194 11.3785 71.2951 11.5727L70.2843 14.1902Z" fill="white"/>
<path d="M84.8794 23.4048H76.7663V20.9952H79.4358V13.7359H76.7663V11.3263H82.1187V20.9945H84.8794V23.4048ZM82.4171 9.75797H79.1509V6.49225H82.4168L82.4171 9.75797Z" fill="white"/>
<path d="M99.993 11.3263L95.535 23.405H92.3725L87.9145 11.3263H90.7786L93.9666 20.4632L97.1289 11.3263H99.993Z" fill="white"/>
<path d="M103.395 19.9316C103.381 19.2667 103.581 18.6149 103.965 18.0718C104.362 17.5255 104.872 17.0721 105.462 16.7432C106.126 16.3714 106.843 16.1026 107.588 15.9461C108.39 15.7688 109.209 15.6797 110.031 15.6806C110.489 15.6806 110.882 15.6892 111.21 15.7066C111.539 15.7239 111.871 15.7498 112.208 15.7843V15.305C112.224 15.0254 112.164 14.7468 112.035 14.4983C111.907 14.2497 111.713 14.0404 111.476 13.892C110.892 13.5566 110.224 13.3948 109.551 13.4257C108.802 13.4289 108.057 13.5313 107.335 13.7302C106.587 13.932 105.868 14.2303 105.197 14.6178L104.108 12.5186C104.915 12.0557 105.774 11.6923 106.668 11.4364C107.606 11.1692 108.576 11.0361 109.551 11.0412C110.203 11.0406 110.853 11.1145 111.488 11.2613C112.098 11.3974 112.678 11.6433 113.199 11.987C113.703 12.322 114.118 12.7731 114.411 13.3024C114.732 13.9199 114.888 14.6096 114.864 15.305V23.4048H112.208V21.6181C111.751 22.306 111.098 22.8415 110.335 23.1555C109.495 23.5232 108.588 23.7097 107.672 23.7027C107.108 23.7061 106.546 23.6254 106.006 23.4631C105.511 23.3177 105.05 23.073 104.652 22.7438C104.267 22.4178 103.955 22.0136 103.738 21.5579C103.501 21.0492 103.383 20.4928 103.395 19.9316ZM108.358 21.2921C108.86 21.2955 109.36 21.2283 109.842 21.0923C110.277 20.9715 110.69 20.7842 111.067 20.5371C111.406 20.3165 111.691 20.0234 111.903 19.6789C112.106 19.3443 112.211 18.9598 112.208 18.5686V18.1169C111.813 18.0507 111.415 18.0117 111.015 18.0002C110.644 17.9918 110.315 17.9875 110.03 17.9872C108.717 17.9872 107.725 18.1593 107.056 18.5036C106.387 18.8479 106.052 19.2739 106.051 19.7816C106.051 20.7886 106.82 21.2921 108.358 21.2921Z" fill="white"/>
<path d="M131.312 21.6919C130.629 22.4053 129.787 22.9484 128.856 23.2777C127.953 23.5676 127.01 23.7112 126.063 23.7029C125.125 23.7152 124.193 23.5617 123.309 23.2496C122.528 22.9742 121.813 22.5393 121.209 21.9727C120.628 21.4147 120.176 20.7355 119.886 19.9834C119.57 19.1519 119.414 18.2682 119.426 17.3787C119.418 16.5085 119.574 15.6446 119.886 14.8321C120.168 14.0895 120.589 13.4079 121.128 12.8241C121.648 12.268 122.276 11.8227 122.972 11.5151C123.681 11.1996 124.449 11.0386 125.224 11.0426C125.978 11.0243 126.723 11.2029 127.386 11.5609C127.991 11.8983 128.461 12.4337 128.719 13.0771V11.3263H131.128V16.9509H128.719C128.719 15.8883 128.428 15.0394 127.847 14.4042C127.561 14.0911 127.211 13.8438 126.82 13.6795C126.429 13.5152 126.007 13.4377 125.583 13.4524C125.183 13.4581 124.787 13.5351 124.415 13.6797C123.996 13.837 123.614 14.0777 123.291 14.3872C122.932 14.7346 122.645 15.1493 122.446 15.6076C122.003 16.7398 121.998 17.9966 122.434 19.1318C122.627 19.5898 122.916 20.0013 123.281 20.3389C123.641 20.6611 124.064 20.9043 124.524 21.0531C125.001 21.213 125.502 21.294 126.006 21.2931C126.782 21.3106 127.555 21.1718 128.277 20.8851C128.893 20.6299 129.457 20.2631 129.94 19.8029L131.312 21.6919Z" fill="white"/>
<path d="M147.903 11.3263L142.694 25.7636C142.305 26.809 141.739 27.5261 140.996 27.915C140.171 28.3224 139.259 28.5225 138.339 28.498C137.957 28.4955 137.575 28.4609 137.198 28.3945C136.765 28.3178 136.34 28.2006 135.928 28.0444L136.486 25.5824C136.818 25.7092 137.16 25.8068 137.51 25.8739C137.783 25.9262 138.061 25.9544 138.339 25.958C138.691 25.9832 139.043 25.8931 139.339 25.7013C139.636 25.5096 139.863 25.2266 139.985 24.8949L140.464 23.7286L135.851 11.3263H138.637L141.954 20.4629L145.025 11.326L147.903 11.3263Z" fill="white"/>
<path d="M164.694 18.7689C164.694 20.3057 164.172 21.4625 163.126 22.2394C162.081 23.0163 160.595 23.4048 158.668 23.4048H153.277V6.4922H158.37C159.069 6.49142 159.767 6.54999 160.456 6.66725C161.103 6.77085 161.725 6.99293 162.29 7.32233C162.837 7.64892 163.29 8.11131 163.606 8.66462C163.962 9.38145 164.135 10.1756 164.109 10.9758C164.083 11.7761 163.859 12.5573 163.457 13.2495C162.998 13.9761 162.299 14.518 161.48 14.78C162.56 15.1169 163.366 15.5875 163.897 16.1918C164.429 16.7961 164.694 17.6551 164.694 18.7689ZM161.454 11.2483C161.472 10.8267 161.376 10.4081 161.176 10.0364C161.003 9.73688 160.755 9.48756 160.456 9.31308C160.152 9.14041 159.818 9.02758 159.472 8.98071C159.107 8.92852 158.739 8.90238 158.37 8.90251H155.96V13.5941H158.37C158.739 13.5945 159.107 13.5684 159.472 13.5162C159.818 13.4698 160.153 13.3569 160.456 13.1838C160.755 13.0095 161.003 12.7602 161.176 12.4607C161.376 12.0889 161.472 11.6701 161.454 11.2483ZM162.038 18.4929C162.038 17.6463 161.742 17.0199 161.15 16.6139C160.558 16.2079 159.731 16.0045 158.668 16.0037H155.96V20.9933H158.668C159.731 20.9933 160.558 20.7881 161.15 20.3776C161.741 19.9672 162.037 19.339 162.038 18.4929Z" fill="white"/>
<path d="M180.899 14.1902C180.586 14.0374 180.258 13.918 179.921 13.8339C179.545 13.747 179.16 13.7057 178.774 13.7109C178.204 13.7068 177.637 13.7966 177.097 13.9766C176.593 14.1423 176.132 14.414 175.742 14.7735C175.351 15.1445 175.048 15.5985 174.855 16.102C174.63 16.7048 174.523 17.3446 174.537 17.9874V20.9942H177.246V23.4038H169.119V20.9942H171.854V13.7496H169.119V11.3263H174.536V14.3591C174.977 13.1496 175.627 12.2942 176.486 11.7929C177.422 11.2725 178.481 11.013 179.551 11.0414C179.943 11.0434 180.333 11.0824 180.718 11.1579C181.133 11.2388 181.534 11.3785 181.91 11.5727L180.899 14.1902Z" fill="white"/>
<path d="M185.544 19.9316C185.531 19.2667 185.73 18.6149 186.114 18.0718C186.511 17.5256 187.022 17.0722 187.611 16.7432C188.275 16.3714 188.992 16.1027 189.737 15.9461C190.539 15.7688 191.359 15.6798 192.18 15.6806C192.638 15.6806 193.031 15.6892 193.36 15.7066C193.688 15.7239 194.021 15.7498 194.357 15.7843V15.305C194.373 15.0254 194.314 14.7468 194.185 14.4983C194.056 14.2497 193.863 14.0403 193.625 13.892C193.041 13.5566 192.374 13.3948 191.701 13.4257C190.952 13.4289 190.206 13.5313 189.484 13.7302C188.736 13.932 188.017 14.2303 187.346 14.6178L186.257 12.5186C187.064 12.0557 187.923 11.6923 188.817 11.4364C189.755 11.1692 190.726 11.0361 191.701 11.0412C192.352 11.0406 193.002 11.1145 193.638 11.2613C194.247 11.3975 194.827 11.6434 195.348 11.987C195.852 12.322 196.267 12.7731 196.56 13.3024C196.881 13.9198 197.037 14.6095 197.014 15.305V23.4048H194.357V21.6181C193.9 22.306 193.248 22.8415 192.484 23.1555C191.645 23.5232 190.737 23.7097 189.821 23.7027C189.257 23.7061 188.696 23.6254 188.156 23.4631C187.66 23.3177 187.199 23.073 186.801 22.7438C186.416 22.4177 186.104 22.0135 185.887 21.5579C185.65 21.0492 185.533 20.4928 185.544 19.9316ZM190.508 21.2921C191.009 21.2956 191.509 21.2283 191.992 21.0923C192.426 20.9715 192.839 20.7842 193.216 20.5371C193.555 20.3165 193.841 20.0233 194.052 19.6789C194.255 19.3443 194.361 18.9598 194.357 18.5686V18.1169C193.962 18.0507 193.564 18.0117 193.164 18.0002C192.793 17.9918 192.465 17.9875 192.18 17.9872C190.866 17.9872 189.875 18.1593 189.205 18.5036C188.536 18.8479 188.201 19.2739 188.201 19.7816C188.201 20.7886 188.97 21.2921 190.508 21.2921Z" fill="white"/>
<path d="M211.263 23.4048H203.15V20.9952H205.819V13.7359H203.15V11.3263H208.501V20.9945H211.262L211.263 23.4048ZM208.8 9.75797H205.534V6.49225H208.8V9.75797Z" fill="white"/>
<path d="M227.867 23.4048H225.185V15.953C225.185 15.0112 225.008 14.3588 224.653 13.996C224.299 13.6331 223.785 13.4516 223.111 13.4515C222.639 13.4427 222.172 13.5475 221.749 13.7572C221.326 13.9669 220.96 14.2753 220.681 14.6563C220.055 15.4595 219.741 16.5698 219.742 17.9872V23.4045H217.059V11.3263H219.742V14.3591C219.955 13.4027 220.479 12.5439 221.232 11.9169C221.996 11.3209 222.946 11.0116 223.915 11.0428C225.15 11.0428 226.118 11.4444 226.818 12.2476C227.518 13.0508 227.868 14.2864 227.867 15.9544V23.4048Z" fill="white"/>
<path d="M21.637 9.71988C21.8862 9.71984 22.1298 9.64591 22.3369 9.50745C22.544 9.36898 22.7055 9.17221 22.8008 8.942C22.8961 8.71179 22.921 8.45848 22.8724 8.21411C22.8238 7.96974 22.7038 7.74528 22.5276 7.56911C22.3514 7.39294 22.1269 7.27298 21.8825 7.22439C21.6381 7.1758 21.3848 7.20075 21.1546 7.29611C20.9244 7.39147 20.7277 7.55295 20.5893 7.76013C20.4508 7.9673 20.377 8.21087 20.377 8.46004C20.3769 8.62551 20.4095 8.78937 20.4728 8.94225C20.5361 9.09513 20.6289 9.23404 20.746 9.35103C20.863 9.46803 21.0019 9.56083 21.1548 9.62411C21.3077 9.6874 21.4716 9.71995 21.637 9.71988Z" fill="white"/>
<path d="M8.2869 20.3791C8.03774 20.3791 7.79417 20.453 7.58699 20.5914C7.37982 20.7298 7.21834 20.9266 7.12298 21.1568C7.02762 21.387 7.00265 21.6402 7.05124 21.8846C7.09984 22.129 7.2198 22.3535 7.39597 22.5297C7.57214 22.7059 7.7966 22.8259 8.04097 22.8745C8.28534 22.9232 8.53865 22.8983 8.76886 22.803C8.99907 22.7076 9.19584 22.5462 9.3343 22.339C9.47276 22.1319 9.54669 21.8883 9.54674 21.6392C9.54674 21.305 9.41402 20.9846 9.17776 20.7483C8.9415 20.5119 8.62105 20.3792 8.2869 20.3791Z" fill="white"/>
<path d="M8.2869 7.20093C8.03772 7.20093 7.79415 7.27482 7.58697 7.41325C7.37979 7.55168 7.21831 7.74845 7.12295 7.97866C7.0276 8.20886 7.00265 8.46217 7.05126 8.70656C7.09987 8.95095 7.21986 9.17542 7.39605 9.35162C7.57224 9.52781 7.79673 9.6478 8.04111 9.69641C8.2855 9.74502 8.53881 9.72007 8.76902 9.62472C8.99922 9.52936 9.19598 9.36789 9.33442 9.16071C9.47285 8.95352 9.54674 8.70995 9.54674 8.46077C9.54668 8.12666 9.41392 7.80626 9.17767 7.57C8.94142 7.33375 8.62101 7.20099 8.2869 7.20093Z" fill="white"/>
<path d="M23.0802 24.032C22.4853 24.4384 21.7607 24.6096 21.0468 24.5126C20.3329 24.4156 19.6803 24.0573 19.2153 23.5069C18.7504 22.9565 18.5061 22.2532 18.5298 21.5331C18.5534 20.813 18.8434 20.1273 19.3434 19.6086C19.8435 19.0899 20.5182 18.7752 21.237 18.7253C21.9557 18.6754 22.6675 18.8938 23.2344 19.3384C23.8014 19.783 24.1833 20.422 24.3063 21.1319C24.4293 21.8419 24.2846 22.5722 23.9002 23.1815L29.1666 28.4479C29.3568 28.3459 29.5579 28.2657 29.7661 28.2086V1.54026C29.7649 1.13216 29.6023 0.741113 29.3138 0.452523C29.0252 0.163932 28.6342 0.00124648 28.2261 0H17.5995C17.5265 0.0484282 17.4554 0.0994565 17.3782 0.141743L10.6807 6.83925C11.0869 7.43402 11.258 8.15831 11.161 8.87198C11.064 9.58566 10.7058 10.238 10.1556 10.7028C9.60535 11.1675 8.9023 11.4117 8.18245 11.388C7.4626 11.3644 6.77712 11.0745 6.25863 10.5746C5.74013 10.0747 5.42549 9.40027 5.37558 8.68176C5.32567 7.96325 5.54404 7.25176 5.98844 6.68497C6.43283 6.11817 7.07166 5.73635 7.78133 5.61339C8.49099 5.49042 9.22104 5.63504 9.83023 6.01928L15.4198 0.429712C15.0552 0.354047 14.7088 0.20818 14.4 0.000237908H1.54026C1.13212 0.00142209 0.741037 0.164076 0.45244 0.452674C0.163842 0.741271 0.00118419 1.13235 0 1.54049V28.4597C0.00118419 28.8679 0.163842 29.259 0.45244 29.5476C0.741037 29.8362 1.13212 29.9988 1.54026 30H27.8285C27.9323 29.7177 28.0791 29.4531 28.2639 29.2157L23.0802 24.032ZM8.28714 24.5295C7.8379 24.5302 7.39469 24.4262 6.99267 24.2257C6.59065 24.0252 6.2409 23.7337 5.97117 23.3745C5.70144 23.0152 5.51916 22.5981 5.43878 22.1561C5.35841 21.7141 5.38216 21.2594 5.50816 20.8282C5.63415 20.397 5.85891 20.0011 6.16461 19.6719C6.47031 19.3428 6.84853 19.0894 7.26925 18.9318C7.68997 18.7743 8.14161 18.7171 8.58833 18.7645C9.03505 18.812 9.46455 18.963 9.84275 19.2055L19.1386 9.9096C18.7777 9.28922 18.6596 8.55705 18.8072 7.85465C18.9548 7.15226 19.3576 6.52954 19.9377 6.10692C20.5178 5.6843 21.2341 5.49181 21.9479 5.56665C22.6617 5.64149 23.3224 5.97836 23.8023 6.51211C24.2821 7.04586 24.547 7.73858 24.5457 8.45631C24.5444 9.17405 24.277 9.86582 23.7953 10.3978C23.3135 10.9299 22.6516 11.2643 21.9375 11.3366C21.2234 11.4089 20.5079 11.2138 19.9293 10.7891L10.6882 20.0302C10.9799 20.4652 11.1478 20.9714 11.1741 21.4945C11.2003 22.0176 11.0839 22.538 10.8373 23.0001C10.5908 23.4622 10.2232 23.8486 9.77404 24.1179C9.32485 24.3873 8.81091 24.5296 8.28714 24.5295Z" fill="white"/>
<path d="M21.4584 20.3791C21.2093 20.3791 20.9657 20.453 20.7585 20.5914C20.5514 20.7298 20.3899 20.9266 20.2945 21.1568C20.1992 21.387 20.1742 21.6402 20.2228 21.8846C20.2714 22.129 20.3913 22.3535 20.5675 22.5297C20.7437 22.7059 20.9681 22.8259 21.2125 22.8745C21.4569 22.9232 21.7102 22.8983 21.9404 22.803C22.1706 22.7076 22.3674 22.5462 22.5058 22.339C22.6443 22.1319 22.7182 21.8883 22.7183 21.6392C22.7183 21.4737 22.6858 21.3099 22.6225 21.157C22.5592 21.0041 22.4664 20.8652 22.3494 20.7482C22.2324 20.6312 22.0935 20.5383 21.9406 20.475C21.7877 20.4117 21.6239 20.3791 21.4584 20.3791Z" fill="white"/>
</g>
<defs>
<clipPath id="clip0_28_4">
<rect width="227.867" height="30" fill="white"/>
</clipPath>
</defs>
</svg>
