<svg width="120" height="36" viewBox="0 0 120 36" fill="none" xmlns="http://www.w3.org/2000/svg">
<g clip-path="url(#clip0_23_85)">
<path d="M49.301 29.152C49.4257 29.1921 49.5459 29.2143 49.6706 29.2277C49.7952 29.241 49.9155 29.2455 50.0402 29.2455C50.3474 29.2455 50.6458 29.2054 50.9308 29.1164C51.2158 29.0318 51.4829 28.9115 51.7323 28.7512C51.9817 28.5954 52.2043 28.3994 52.4047 28.1723C52.6006 27.9452 52.7609 27.6914 52.8856 27.4153L55.1967 29.7398C54.9028 30.1539 54.5689 30.528 54.1859 30.8619C53.8029 31.1915 53.3933 31.4765 52.948 31.7036C52.5071 31.9351 52.0396 32.1088 51.5497 32.229C51.0599 32.3492 50.5567 32.4071 50.0402 32.4071C49.1718 32.4071 48.3525 32.2468 47.5821 31.9217C46.8162 31.5967 46.1438 31.1469 45.5693 30.568C44.9949 29.9892 44.5407 29.3034 44.2112 28.5063C43.8817 27.7092 43.7124 26.832 43.7124 25.8746C43.7124 24.8949 43.8772 23.9999 44.2112 23.1939C44.5407 22.3834 44.9949 21.6977 45.5693 21.1232C46.1438 20.5532 46.8162 20.1124 47.5821 19.7918C48.348 19.4756 49.1674 19.3198 50.0402 19.3198C50.5567 19.3198 51.0599 19.3821 51.5542 19.5068C52.0485 19.6315 52.516 19.8051 52.9569 20.0367C53.3977 20.2682 53.8163 20.5533 54.1993 20.8872C54.5822 21.2212 54.9251 21.5997 55.2146 22.0138L49.301 29.152ZM50.9174 22.6461C50.7705 22.5927 50.628 22.5571 50.4855 22.5437C50.343 22.5304 50.196 22.5215 50.0402 22.5215C49.6082 22.5215 49.203 22.6016 48.82 22.7575C48.4371 22.9178 48.1076 23.1404 47.827 23.4343C47.5465 23.7282 47.3238 24.08 47.1635 24.4941C47.0032 24.9083 46.9186 25.3714 46.9186 25.8879C46.9186 26.0037 46.9231 26.1329 46.9364 26.2798C46.9498 26.4268 46.9676 26.5737 46.9943 26.7251C47.021 26.8765 47.0522 27.019 47.0923 27.157C47.1324 27.2951 47.1813 27.4198 47.2437 27.5266L50.9174 22.6461Z" fill="white"/>
<path d="M64.3076 32.18H57.0937V29.0362H64.3076C64.5258 29.0362 64.7083 28.9605 64.8642 28.8046C65.02 28.6488 65.0958 28.4662 65.0958 28.248C65.0958 28.0254 65.02 27.8784 64.8642 27.8072C64.7083 27.7359 64.5258 27.7048 64.3076 27.7048H61.0257C60.478 27.7048 59.9659 27.6023 59.4894 27.393C59.013 27.1837 58.5944 26.9032 58.2426 26.5425C57.8863 26.1863 57.6103 25.7677 57.4054 25.2868C57.2006 24.8103 57.0982 24.2982 57.0982 23.7505C57.0982 23.2028 57.2006 22.6907 57.4054 22.2142C57.6103 21.7377 57.8908 21.3191 58.2426 20.9674C58.5988 20.6156 59.013 20.335 59.4894 20.1302C59.9659 19.9254 60.478 19.8229 61.0257 19.8229H67.4158V22.9668H61.0257C60.8075 22.9668 60.6249 23.0425 60.4691 23.1983C60.3132 23.3542 60.2375 23.5367 60.2375 23.7549C60.2375 23.9776 60.3132 24.1691 60.4691 24.3249C60.6249 24.4852 60.8075 24.5609 61.0257 24.5609H64.3076C64.8464 24.5609 65.354 24.65 65.835 24.8326C66.3114 25.0151 66.73 25.2645 67.0818 25.5896C67.4336 25.9146 67.7186 26.3021 67.9234 26.7563C68.1327 27.2105 68.2351 27.7092 68.2351 28.248C68.2351 28.7957 68.1327 29.3078 67.9234 29.7798C67.7141 30.2519 67.4336 30.6704 67.0818 31.0267C66.73 31.3829 66.3114 31.6679 65.835 31.8683C65.3585 32.0776 64.8508 32.18 64.3076 32.18Z" fill="white"/>
<path d="M76.8339 32.18C76.0724 32.18 75.3555 32.0375 74.6831 31.748C74.0107 31.4586 73.4273 31.0623 72.9197 30.5591C72.4165 30.0559 72.0202 29.4681 71.7307 28.7957C71.4413 28.1233 71.2988 27.4108 71.2988 26.6449V22.9712H69.7625V19.8274H71.2988V14.8801H74.4426V19.8274H79.2296V22.9712H74.4426V26.6449C74.4426 26.9744 74.505 27.2861 74.6296 27.5756C74.7543 27.865 74.9235 28.1188 75.1373 28.3326C75.3555 28.5508 75.6093 28.72 75.8987 28.8491C76.1926 28.9783 76.5043 29.0406 76.8339 29.0406H79.2251V32.1844H76.8339V32.18Z" fill="white"/>
<path d="M85.3569 32.18H82.0394V15.606H85.3569V32.18Z" fill="white"/>
<path d="M103.164 35.4975H99.3972L97.4112 32.514C97.3043 32.5274 97.2019 32.5363 97.1039 32.5363C97.006 32.5363 96.9124 32.5363 96.8189 32.5363C96.0307 32.5363 95.2737 32.4338 94.5479 32.229C93.8176 32.0242 93.1363 31.7347 92.504 31.3607C91.8672 30.9866 91.2883 30.5369 90.7628 30.0159C90.2374 29.4904 89.7876 28.9115 89.418 28.2747C89.044 27.638 88.7545 26.9567 88.5497 26.2308C88.3449 25.5005 88.2424 24.7435 88.2424 23.9598C88.2424 23.1716 88.3449 22.4146 88.5497 21.6843C88.7545 20.954 89.044 20.2727 89.418 19.6404C89.7921 19.008 90.2418 18.4292 90.7628 17.9082C91.2883 17.3827 91.8672 16.9374 92.504 16.5678C93.1408 16.1982 93.8221 15.9132 94.5479 15.7084C95.2782 15.5035 96.0352 15.4011 96.8189 15.4011C97.6071 15.4011 98.3641 15.5035 99.0944 15.7084C99.8247 15.9132 100.506 16.1982 101.138 16.5678C101.771 16.9374 102.35 17.3827 102.871 17.9082C103.396 18.4336 103.841 19.0125 104.211 19.6404C104.58 20.2727 104.866 20.954 105.07 21.6843C105.275 22.419 105.378 23.176 105.378 23.9598C105.378 24.7747 105.266 25.5718 105.035 26.3421C104.808 27.1125 104.487 27.8339 104.068 28.4974C103.654 29.1653 103.151 29.7665 102.559 30.3053C101.971 30.8441 101.312 31.2939 100.586 31.659L103.164 35.4975ZM102.087 23.9642C102.087 23.2384 101.949 22.5571 101.673 21.9114C101.397 21.2702 101.018 20.7091 100.546 20.2371C100.074 19.7651 99.513 19.3865 98.8718 19.1105C98.2261 18.8344 97.5448 18.6963 96.8189 18.6963C96.0886 18.6963 95.4029 18.8344 94.7616 19.1105C94.1204 19.3865 93.5638 19.7651 93.0873 20.2371C92.6108 20.7091 92.2323 21.2702 91.9563 21.9114C91.6802 22.5571 91.5421 23.2384 91.5421 23.9642C91.5421 24.6901 91.6802 25.3669 91.9563 26.0037C92.2323 26.6405 92.6108 27.1971 93.0873 27.6736C93.5638 28.1501 94.1249 28.5286 94.7616 28.8046C95.3984 29.0807 96.0886 29.2188 96.8189 29.2188C97.5448 29.2188 98.2261 29.0807 98.8718 28.8046C99.5174 28.5286 100.074 28.1501 100.546 27.6736C101.018 27.1971 101.397 26.6405 101.673 26.0037C101.949 25.3669 102.087 24.6856 102.087 23.9642Z" fill="white"/>
<path d="M119.917 32.18H119.155L117.931 30.479C117.632 30.7506 117.312 31 116.978 31.236C116.644 31.472 116.292 31.6768 115.918 31.8505C115.548 32.0242 115.17 32.1622 114.778 32.2602C114.39 32.3581 113.994 32.4116 113.593 32.4116C112.725 32.4116 111.906 32.2646 111.135 31.9707C110.369 31.6768 109.697 31.2538 109.123 30.6927C108.548 30.1361 108.094 29.4503 107.764 28.6399C107.435 27.8294 107.266 26.9121 107.266 25.879C107.266 24.9172 107.43 24.031 107.764 23.2251C108.094 22.4191 108.548 21.7288 109.123 21.1499C109.697 20.571 110.369 20.1213 111.135 19.8051C111.901 19.4845 112.721 19.3242 113.593 19.3242C113.994 19.3242 114.39 19.3732 114.782 19.4756C115.174 19.578 115.557 19.7161 115.927 19.8897C116.296 20.0679 116.648 20.2772 116.987 20.5132C117.321 20.7536 117.637 21.0119 117.931 21.288L119.155 19.8185H119.917V32.18ZM116.737 25.8835C116.737 25.4515 116.653 25.033 116.488 24.6277C116.323 24.2225 116.096 23.8663 115.811 23.5546C115.526 23.2429 115.192 22.9935 114.809 22.802C114.426 22.615 114.021 22.517 113.589 22.517C113.157 22.517 112.752 22.5927 112.369 22.7352C111.986 22.8822 111.656 23.0959 111.376 23.3809C111.095 23.6659 110.873 24.0177 110.712 24.4407C110.552 24.8593 110.467 25.3402 110.467 25.879C110.467 26.4178 110.548 26.8988 110.712 27.3174C110.873 27.7359 111.095 28.0922 111.376 28.3771C111.656 28.6621 111.99 28.8803 112.369 29.0228C112.752 29.1698 113.157 29.241 113.589 29.241C114.021 29.241 114.426 29.1475 114.809 28.9561C115.192 28.769 115.522 28.5152 115.811 28.2035C116.096 27.8918 116.323 27.5311 116.488 27.1303C116.657 26.7295 116.737 26.3154 116.737 25.8835Z" fill="white"/>
<path d="M41.1119 32.18H37.5628L31.1728 21.2702V32.18H27.8553V15.606H31.4044L37.7944 26.5292V15.606H41.1119V32.18Z" fill="white"/>
<path d="M12.2342 0.594849C12.2342 0.594849 12.2342 0.59485 12.1318 14.9023L18.0008 8.73938V0.599306H12.2342V0.594849ZM16.4734 8.22727L13.6814 12.3775C13.7304 2.74563 13.7304 2.74563 13.7304 2.74563H16.4734V8.22727Z" fill="white"/>
<path d="M21.9729 20.3439C24.3609 20.3439 26.2968 18.4081 26.2968 16.0201C26.2968 13.6321 24.3609 11.6962 21.9729 11.6962C19.5849 11.6962 17.649 13.6321 17.649 16.0201C17.649 18.4081 19.5849 20.3439 21.9729 20.3439Z" fill="white"/>
<path d="M2.92297 32.18L22.1466 4.47345L27.8152 14.2523L27.8553 15.606L28.6168 15.6371L38.2041 32.18L40.9204 31.236L22.1466 0.488037L0.144287 32.18H2.92297Z" fill="white"/>
</g>
<defs>
<clipPath id="clip0_23_85">
<rect width="119.772" height="35.0095" fill="white" transform="translate(0.144287 0.488037)"/>
</clipPath>
</defs>
</svg>
