<svg width="180" height="22" viewBox="0 0 180 22" fill="none" xmlns="http://www.w3.org/2000/svg">
<g clip-path="url(#clip0_1_50)">
<path d="M45.0735 9.53109L40.4289 6.45486C36.508 3.89169 37.4424 0.271125 40.7001 0.271125C45.5261 0.271125 46.9735 4.28169 47.5762 6.45486H47.8473V1.38691C47.8473 1.38691 45.8577 0 40.7001 0C35.5424 0 34.095 2.29205 34.095 2.29205C31.5319 5.51844 32.5872 9.19948 36.8689 11.8836L41.5134 14.8097C45.1319 17.4938 44.2268 21.5044 41.0004 21.5044C36.2661 21.5044 33.6404 16.4969 33.1586 14.4468H32.8875V20.2385C32.8875 20.2385 35.1503 21.7776 41.0004 21.7776C46.2185 21.7776 47.8473 19.3041 47.8473 19.3041C50.1102 16.0172 49.0528 12.1568 45.0735 9.53109Z" fill="white"/>
<path d="M108.383 0.513053C109.681 0.513053 110.344 0.542251 110.344 3.19719V18.0966C110.344 20.9621 109.649 21.2333 108.383 21.2333V21.5044H118.336V21.2333C117.07 21.2333 116.375 20.9621 116.375 18.0966V3.19719C116.375 0.542251 117.07 0.513053 118.336 0.513053V0.271126H108.383V0.513053Z" fill="white"/>
<path d="M123.191 21.2333V21.5044H132.601V21.2333C129.667 21.2333 128.411 18.5345 128.082 15.3707L127.675 14.6241C127.448 18.1424 126.113 21.2354 123.189 21.2354L123.191 21.2333Z" fill="white"/>
<path d="M133.325 0.271126H124.73V0.542251C125.575 0.602733 126.54 1.0845 127.717 3.16591L137.761 21.7755H138.032L140.793 14.4635L133.325 0.271126Z" fill="white"/>
<path d="M151.784 18.6993V2.77591C151.784 0.936425 151.724 0.544337 153.202 0.544337V0.271126H145.842V18.6993C145.842 20.7494 145.721 21.2333 144.303 21.2333V21.5044H153.503V21.2333C152.024 21.2333 151.784 20.7515 151.784 18.6993Z" fill="white"/>
<path d="M59.0448 15.9672L58.8362 15.7732C56.4545 21.2166 54.784 21.4648 53.8559 21.5253V21.7734H62.7634V21.5253C59.2054 21.5253 58.5484 17.5501 59.0448 15.9672Z" fill="white"/>
<path d="M66.5153 18.7285C66.5258 18.7556 66.5341 18.7827 66.5425 18.8077H66.5487L66.5133 18.7285H66.5153Z" fill="white"/>
<path d="M162.673 15.9672L162.464 15.7732C160.083 21.2166 158.412 21.4648 157.484 21.5253V21.7734H166.392V21.5253C162.834 21.5253 162.177 17.5501 162.673 15.9672Z" fill="white"/>
<path d="M177.216 18.9579C177.216 18.9579 176.69 17.9381 168.865 0H168.711L165.424 8.29852L170.169 18.8098C170.542 19.8818 170.842 21.5253 169.174 21.5253V21.7734H179.998V21.5253C179.378 21.4627 178.327 21.4335 177.214 18.9579H177.216Z" fill="white"/>
<path d="M100.631 17.6732C99.1526 12.2444 97.4048 11.4915 93.9365 11.4915C96.8313 11.4915 100.994 10.5572 100.994 6.03149C100.994 1.50579 96.5685 0.450484 91.2816 0.298237V0.556849C93.3838 0.6507 93.9052 1.33894 93.9052 6.03358C93.9052 10.7282 93.6258 11.2934 91.2816 11.4081V11.8148C92.3723 12.0338 93.8448 12.6761 94.0867 14.5386C94.8104 20.1488 95.4736 21.5065 97.6155 21.5065H103.618V21.2354C102.834 21.1749 101.236 19.9694 100.631 17.6774V17.6732Z" fill="white"/>
<path d="M88.6558 0.542251V0.271126H81.0247V0.513053C82.3511 0.513053 82.5931 1.32643 82.5931 3.19719V18.0966C82.5931 21.1728 82.3219 21.2333 81.0247 21.2333V21.5044H90.0427V21.2333C88.7768 21.2333 88.6558 21.0518 88.6558 18.0966V0.542251Z" fill="white"/>
<path d="M73.5896 18.9579C73.5896 18.9579 73.0641 17.9381 65.239 0H65.0846L61.7978 8.29852L66.5425 18.8098C66.9158 19.8818 67.2161 21.5253 65.5476 21.5253V21.7734H76.3718V21.5253C75.7524 21.4627 74.7012 21.4335 73.5875 18.9579H73.5896Z" fill="white"/>
<path d="M10.8971 21.6587V21.7755H6.70305V21.6587C7.13893 21.6295 7.9252 21.5127 9.04724 18.9496L9.14526 19.0413C8.91168 19.7859 9.22243 21.6587 10.8971 21.6587ZM15.9943 20.4512C15.9943 20.4512 15.7461 19.9715 12.063 11.5249H11.99L10.4425 15.4312L12.6761 20.3803C12.8513 20.885 12.9932 21.6587 12.2069 21.6587V21.7755H17.304V21.6587C17.0121 21.6295 16.5178 21.6149 15.9943 20.4512ZM14.8618 2.90938L14.9599 3.00115C16.0819 0.437973 16.8682 0.32118 17.304 0.291982V0.17519H13.1099V0.291982C14.7847 0.291982 15.0954 2.16483 14.8618 2.90938ZM8.0545 1.49953C8.0545 1.49953 8.30269 1.97922 11.9858 10.4258H12.0588L13.6063 6.51952L11.3727 1.57044C11.1975 1.06573 11.0557 0.291982 11.8419 0.291982V0.17519H6.74476V0.291982C7.03674 0.32118 7.53102 0.335779 8.0545 1.49953ZM3.58928 12.5343L3.61848 12.4029C0.838403 12.7137 0.34412 12.0901 0.100108 11.7272L0 11.7856L2.09601 15.4166L2.19611 15.3582C1.35771 13.9087 2.82596 12.7033 3.58719 12.5322L3.58928 12.5343ZM5.79374 19.1686C5.79374 19.1686 6.08572 18.7139 11.5583 11.3017L11.5228 11.2392L7.36626 11.8523L4.19618 16.2613C3.84789 16.6659 3.24725 17.1747 2.85516 16.4948L2.75505 16.5532L5.30363 20.9663L5.40373 20.9079C5.28277 20.641 5.04919 20.2051 5.79582 19.1686H5.79374ZM20.4178 9.41639L20.3886 9.54778C23.1687 9.23703 23.663 9.86061 23.907 10.2235L24.0071 10.1651L21.9111 6.53412L21.811 6.59251C22.6494 8.04199 21.1811 9.24745 20.4199 9.41847L20.4178 9.41639ZM18.2342 2.81762C18.2342 2.81762 17.9422 3.27227 12.4697 10.6844L12.5051 10.747L16.6617 10.1338L19.8318 5.72491C20.1801 5.32031 20.7807 4.81143 21.1728 5.49133L21.2729 5.43293L18.7243 1.01985L18.6242 1.07825C18.7452 1.3452 18.9788 1.78109 18.2321 2.81762H18.2342ZM6.44652 4.46522L6.57374 4.4256C4.91571 2.17317 5.20769 1.43488 5.39956 1.0407L5.29945 0.982309L3.20345 4.61747L3.30356 4.67587C4.14196 3.22639 5.91679 3.89378 6.44652 4.46731V4.46522ZM1.80194 9.69377C1.80194 9.69377 2.3421 9.7188 11.4978 10.7532L11.5332 10.6907L8.92419 7.39755L3.52046 6.85738C2.99489 6.75727 2.25451 6.49241 2.6466 5.81251L2.54649 5.75411L0 10.1651L0.100108 10.2235C0.271125 9.98575 0.531823 9.56446 1.80194 9.69377ZM17.5585 17.4855L17.4313 17.5251C19.0893 19.7775 18.7973 20.5158 18.6054 20.91L18.7056 20.9684L20.8016 17.3374L20.7015 17.279C19.863 18.7285 18.0882 18.0611 17.5585 17.4876V17.4855ZM22.1822 12.2966C22.1822 12.2966 21.642 12.2715 12.4864 11.2371L12.4509 11.2997L15.06 14.5928L20.4637 15.133C20.9893 15.2331 21.7296 15.4979 21.3376 16.1778L21.4377 16.2362L23.9862 11.8231L23.8861 11.7647C23.7151 12.0025 23.4544 12.4238 22.1843 12.2945L22.1822 12.2966Z" fill="white"/>
</g>
<defs>
<clipPath id="clip0_1_50">
<rect width="180" height="21.7755" fill="white"/>
</clipPath>
</defs>
</svg>
