<svg width="138" height="31" viewBox="0 0 138 31" fill="none" xmlns="http://www.w3.org/2000/svg">
<g clip-path="url(#clip0_23_28)">
<path d="M15.6655 30.7787C8.59415 30.7386 2.46682 25.8849 0.774684 19.0273C0.494145 17.8828 0.525309 16.8631 1.83894 16.5781C3.05016 16.3154 3.46874 17.1837 3.75819 18.2524C5.66407 25.2748 12.0363 28.9753 19.1389 27.2297C20.1853 26.9714 21.2897 26.7309 21.637 28.147C21.971 29.5052 20.969 29.9371 19.9092 30.2355C18.5288 30.6362 17.1038 30.752 15.6655 30.7787Z" fill="white"/>
<path d="M19.6287 0.351379C26.0366 1.7897 31.0284 8.04171 31.2198 14.5297C31.2198 15.2378 31.2421 15.643 31.2154 16.0393C31.1486 17.0368 30.6365 17.7003 29.6123 17.6646C28.5926 17.629 28.1027 16.97 28.1428 15.9369C28.2497 13.1627 27.5461 10.6022 25.9653 8.32225C24.2064 5.78404 21.8329 4.08745 18.8093 3.3438C17.7317 3.07662 16.7476 2.66249 17.0994 1.29096" fill="white"/>
<path d="M14.4409 1.23753C14.7749 2.45765 14.058 3.00092 12.9581 3.28591C8.09095 4.55947 5.04065 7.67657 3.74038 12.5125C3.48656 13.4477 3.06351 14.1512 2.02151 14.0533C1.09529 13.9687 0.649991 13.323 0.61882 12.3656C1.05076 10.3573 1.78551 8.45585 2.97 6.72363C5.24103 3.4106 8.30024 1.25089 12.2055 0.306854" fill="white"/>
<path d="M28.0226 19.9802C29.3318 19.949 30.0665 20.9999 29.5945 22.131C28.8152 24.0102 27.5506 25.5643 26.0143 26.8734C25.333 27.4568 24.527 27.4701 23.859 26.7888C23.3069 26.2278 23.2133 25.4752 23.7477 24.9319C25.0346 23.6183 26.1434 22.1889 27.0518 20.5858C27.2878 20.1761 27.7287 19.9936 28.0226 19.9802Z" fill="white"/>
<path d="M24.6205 13.7371C23.7299 13.7816 23.062 13.746 22.6389 12.655C22.207 11.5462 22.3228 10.8382 23.2356 10.1703C23.4048 10.0456 23.5072 9.82292 23.6408 9.6448C23.2534 8.78537 22.5498 8.26882 21.922 7.70329C21.4366 7.2669 21.0715 7.69439 20.7686 8.02836C20.2031 8.65178 19.7266 9.0392 18.747 8.57608C17.8029 8.13078 17.2775 7.71665 17.4066 6.59895C17.558 5.28532 16.5071 5.52578 15.759 5.52133C14.9931 5.51687 13.9645 5.34766 14.1381 6.63903C14.294 7.7879 13.6661 8.13078 12.7755 8.59389C11.7602 9.11935 11.2971 8.61616 10.7628 8.00164C9.85435 6.95519 9.36006 7.92595 8.85687 8.42913C8.35368 8.93232 7.37848 9.44887 8.46947 10.3128C9.23983 10.9228 9.38678 11.5373 8.95484 12.5214C8.54071 13.461 8.0776 13.8796 7.07567 13.7327C5.84219 13.5501 5.98914 14.503 6.02922 15.1843C6.07375 15.8567 5.58392 17.0012 6.96881 16.9121C8.03753 16.8409 8.5318 17.206 8.99046 18.2257C9.46693 19.2944 9.09288 19.8155 8.39822 20.4033C7.42301 21.2315 8.33587 21.7391 8.79898 22.1755C9.29327 22.6431 9.69404 23.6139 10.736 22.7233C12.4104 21.2938 13.8487 21.9173 14.1025 24.1616C14.2539 25.5019 15.2158 25.0566 15.9104 25.0967C16.6051 25.1368 17.5358 25.3016 17.4244 24.077C17.3398 23.1374 17.5848 22.6075 18.5822 22.1444C19.691 21.6278 20.2031 22.0019 20.8711 22.7144C21.8062 23.7074 22.2782 22.6119 22.7814 22.1444C23.2534 21.7035 24.1218 21.1959 23.1376 20.3765C22.5053 19.8511 22.0645 19.3657 22.5231 18.346C22.9818 17.3218 23.4182 16.7651 24.6249 16.8943C25.8985 17.0323 25.52 15.9369 25.5155 15.3135C25.5066 14.7123 25.9208 13.6748 24.6205 13.7371ZM15.6566 20.2474C12.9536 20.1806 10.8652 17.9318 10.9275 15.1665C10.9854 12.5259 13.1941 10.3706 15.8169 10.4018C18.5154 10.433 20.6929 12.6862 20.6573 15.4114C20.6217 18.11 18.3418 20.3142 15.6566 20.2474Z" fill="white"/>
<path d="M46.4135 9.67151C45.0019 8.61615 43.6927 7.81461 42.0584 7.88586C40.8517 7.9393 39.7117 8.2421 39.2753 9.49784C38.8523 10.7091 39.5559 11.6264 40.4865 12.2854C41.6532 13.1092 42.9134 13.795 44.1113 14.5787C45.5362 15.5049 46.7386 16.6494 47.1037 18.3949C47.7939 21.708 45.8524 24.362 42.4726 24.6826C41.7467 24.7538 40.9808 24.6781 40.2594 24.5312C36.9598 23.8543 36.6748 23.4714 36.8084 20.0515C37.4006 20.0336 37.6188 20.5769 37.984 20.8619C39.0927 21.7436 40.2951 22.3403 41.7378 22.3358C42.9713 22.3314 44.0178 21.9128 44.5299 20.7194C45.0331 19.5572 44.5566 18.5552 43.7061 17.7849C42.9936 17.1392 42.1564 16.6182 41.346 16.0883C40.2461 15.3669 39.0705 14.7524 38.1309 13.8084C35.6728 11.3503 36.3942 7.32033 39.5915 5.97107C41.6666 5.09383 43.7461 5.30312 45.7322 6.33176C46.6005 6.78597 46.5782 6.82604 46.4135 9.67151Z" fill="white"/>
<path d="M129.502 21.138C130.851 21.6278 131.782 22.3314 132.917 22.5184C133.893 22.6787 134.837 22.6119 135.242 21.6055C135.634 20.6303 134.748 20.2029 134.093 19.762C133.051 19.0629 131.951 18.4484 130.949 17.6914C129.787 16.8097 129.4 15.5539 129.818 14.1735C130.223 12.8331 131.297 12.2186 132.632 11.9871C133.496 11.8401 134.351 11.898 135.193 12.0672C137.362 12.4947 137.517 12.7485 137.192 15.1131C136.057 14.7613 135.059 13.9954 133.804 14.0488C133.14 14.0755 132.494 14.1512 132.263 14.8682C132.049 15.5361 132.548 15.9324 133.029 16.253C134.124 16.9789 135.291 17.6023 136.328 18.3994C137.46 19.2677 138.243 20.3899 137.865 21.9484C137.46 23.6272 136.199 24.3397 134.654 24.6425C133.14 24.9408 131.706 24.5534 130.317 23.9567C129.026 23.4001 129.734 22.2958 129.502 21.138Z" fill="white"/>
<path d="M57.1452 21.8104C57.4035 24.0592 57.2743 24.2462 55.2349 24.638C52.3671 25.1858 50.39 23.6495 50.2698 20.7194C50.2119 19.2855 50.1763 17.8472 50.2698 16.4178C50.3633 14.9839 50.2965 13.8529 48.7958 14.2403C49.9046 13.0246 51.2227 11.5774 52.6254 10.0411C52.8926 10.1168 52.7278 10.5487 52.6878 10.8204C52.5185 11.9737 53.1019 12.2008 54.0815 12.1028C54.6515 12.045 55.2304 12.1207 55.8004 12.0895C56.6643 12.0361 56.6821 12.5838 56.6732 13.2072C56.6643 13.8039 56.7044 14.3338 55.8271 14.365C54.8252 14.4006 53.3958 13.8484 52.9238 14.6633C52.4206 15.5317 52.7412 16.8809 52.71 18.0209C52.6967 18.4795 52.7056 18.9382 52.71 19.3969C52.7278 22.4739 53.5917 23.0706 56.5173 22.0152C56.7177 21.9351 56.927 21.8772 57.1452 21.8104Z" fill="white"/>
<path d="M76.7963 14.4852C79.6596 11.6754 81.0623 11.2746 82.7277 12.753C84.0591 13.9375 82.1666 14.3961 82.1933 15.3847C81.0088 14.6232 79.9446 13.7371 78.6265 14.5208C77.2104 15.3669 76.7785 16.7651 76.7918 18.346C76.8052 19.949 76.7295 21.5566 76.8186 23.1552C76.8764 24.2106 76.5781 24.5223 75.5005 24.5089C74.4763 24.4955 74.2937 24.1304 74.3071 23.2175C74.3561 19.9535 74.3382 16.6894 74.316 13.4209C74.3115 12.606 74.2893 12.0138 75.4426 12.0494C76.4445 12.0806 76.9833 12.2542 76.8007 13.3719C76.7562 13.6525 76.7963 13.9419 76.7963 14.4852Z" fill="white"/>
<path d="M113.583 12.7752C113.525 10.3127 111.935 8.67403 109.495 8.6295C106.916 8.58052 104.338 8.58942 101.76 8.62504C99.3329 8.66066 97.7076 10.1034 97.6052 12.5125C97.4849 15.2556 97.4894 18.012 97.6007 20.7595C97.6942 23.0795 99.2617 24.5846 101.582 24.6603C104.271 24.7449 106.97 24.7583 109.655 24.6514C112.033 24.5579 113.52 22.9014 113.578 20.5101C113.609 19.2499 113.583 17.9897 113.583 16.7295C113.591 15.4114 113.614 14.0933 113.583 12.7752ZM111.151 20.4121C111.142 21.5966 110.457 22.2156 109.317 22.2334C106.854 22.2735 104.396 22.2646 101.933 22.2423C100.704 22.229 100.023 21.6323 100.054 20.3275C100.081 19.0673 100.059 17.8116 100.059 16.5514H100.063C100.063 15.2912 100.068 14.0354 100.063 12.7752C100.059 11.6353 100.687 11.0697 101.76 11.0564C104.276 11.0208 106.796 11.0252 109.312 11.0519C110.47 11.0608 111.138 11.6843 111.147 12.8598C111.173 15.3758 111.169 17.8962 111.151 20.4121Z" fill="white"/>
<path d="M122.44 12.2899C120.788 11.9782 119.118 12.1785 117.461 12.0761C116.548 12.0182 116.29 12.3433 116.294 13.2384C116.33 18.6888 116.339 24.1438 116.29 29.5942C116.281 30.6362 116.677 30.7743 117.586 30.8054C118.623 30.8366 118.819 30.4314 118.784 29.5141C118.721 27.7997 118.766 26.0853 118.766 24.2996C119.278 24.3887 119.665 24.4466 120.053 24.5267C123.508 25.257 126.688 23.271 127.356 19.9624C128.153 15.977 126.238 13.0068 122.44 12.2899ZM124.007 21.2449C122.889 22.5763 121.464 22.8079 119.821 22.4115C118.988 22.2112 118.717 21.8237 118.744 20.9955C118.797 19.3969 118.846 17.7938 118.735 16.1996C118.632 14.739 118.953 13.9464 120.329 14.4318C122.364 14.365 123.94 14.739 124.653 16.5826C125.289 18.2302 125.187 19.8422 124.007 21.2449Z" fill="white"/>
<path d="M64.9202 12.0628C61.1485 12.0628 58.2585 14.8459 58.2718 18.4617C58.2852 21.9841 61.1752 24.7316 64.8534 24.7182C68.6161 24.7093 71.4527 22.0598 71.4972 18.5241C71.5418 14.9038 68.6473 12.0628 64.9202 12.0628ZM64.9558 22.3937C62.4755 22.4205 60.8367 20.8396 60.8278 18.4039C60.8189 16.0081 62.373 14.3694 64.6975 14.3249C67.1778 14.2759 68.9946 16.0215 68.9724 18.4217C68.9546 20.7283 67.2981 22.367 64.9558 22.3937Z" fill="white"/>
<path d="M91.8029 22.2646C89.2603 22.8212 87.1451 21.7302 86.535 19.6373C86.299 18.8224 86.4415 18.5018 87.3544 18.5196C89.5319 18.5641 91.7094 18.4929 93.8825 18.5552C94.7909 18.582 95.0536 18.3059 95.018 17.3975C94.92 14.7123 93.1789 12.419 90.8233 12.0093C87.7819 11.4839 85.208 12.8999 84.3174 15.7231C83.4714 18.4038 83.7252 20.9866 85.7869 23.0617C87.862 25.1546 90.4091 24.9453 93.0052 24.215C94.6261 23.7608 95.2317 22.8257 94.6261 21.0623C93.7133 21.6011 92.7959 22.0464 91.8029 22.2646ZM87.3766 14.935C88.3697 13.9019 89.6031 13.8172 90.8544 14.2358C91.9276 14.5921 92.6312 15.545 92.4931 16.5915C92.3551 17.6335 91.273 16.8987 90.6362 17.059C90.2622 17.1525 89.8436 17.0768 89.4428 17.0768C89.0421 17.0768 88.6368 17.1258 88.245 17.0679C87.6616 16.9789 86.7755 17.442 86.5617 16.7384C86.3836 16.1551 86.8868 15.447 87.3766 14.935Z" fill="white"/>
<path d="M102.691 16.5558C102.904 16.6805 103.252 16.7963 103.47 17.0323C104.623 18.2747 105.331 17.5934 106.048 16.5247C106.587 15.7231 107.224 14.9884 107.829 14.2358C108.128 13.8662 108.502 13.51 108.965 13.9063C109.419 14.2893 109.161 14.7301 108.862 15.1086C107.838 16.4044 106.814 17.6958 105.79 18.9872C105.451 19.4147 105.104 19.762 104.516 19.3345C103.777 18.8046 103.016 18.3059 102.267 17.7849C102.018 17.6112 101.849 17.3618 101.947 17.059C102.04 16.7918 102.267 16.6048 102.691 16.5558Z" fill="white"/>
</g>
<defs>
<clipPath id="clip0_23_28">
<rect width="137.342" height="30.5003" fill="white" transform="translate(0.61882 0.306854)"/>
</clipPath>
</defs>
</svg>
