<svg width="180" height="63" viewBox="0 0 180 63" fill="none" xmlns="http://www.w3.org/2000/svg">
<path d="M34.4263 5.68201C34.178 5.45204 33.7885 5.46737 33.5585 5.71574C33.3286 5.96412 33.3439 6.35355 33.5923 6.58353L43.512 15.7827C43.7604 16.0127 44.1498 15.9973 44.3798 15.749C44.6098 15.5006 44.5945 15.1112 44.3461 14.8812L34.4263 5.68201Z" fill="white"/>
<path d="M34.5674 37.9465H33.6168V36.996C33.6168 36.6587 33.3408 36.3827 33.0035 36.3827C32.6662 36.3827 32.3903 36.6587 32.3903 36.996V37.9465H31.4397C31.1024 37.9465 30.8264 38.2225 30.8264 38.5598C30.8264 38.8971 31.1024 39.1731 31.4397 39.1731H32.3903V40.1237C32.3903 40.461 32.6662 40.737 33.0035 40.737C33.3408 40.737 33.6168 40.461 33.6168 40.1237V39.1731H34.5674C34.9047 39.1731 35.1807 38.8971 35.1807 38.5598C35.1807 38.2225 34.9078 37.9465 34.5674 37.9465Z" fill="white"/>
<path d="M15.795 50.2397C15.795 50.5801 16.0709 50.853 16.4082 50.853C16.7455 50.853 17.0215 50.5801 17.0215 50.2397V49.4424H15.795V50.2397Z" fill="white"/>
<path d="M15.795 47.115C15.795 47.4523 16.0709 47.7283 16.4082 47.7283C16.7455 47.7283 17.0215 47.4523 17.0215 47.115V34.7882C17.0215 34.782 17.0185 34.7728 17.0185 34.7667C17.0185 34.7452 17.0154 34.7238 17.0123 34.7023C17.0093 34.6839 17.0062 34.6655 17.0031 34.6471C16.997 34.6287 16.9909 34.6103 16.9847 34.5919C16.9786 34.5735 16.9725 34.5551 16.9633 34.5367C16.9541 34.5183 16.9449 34.503 16.9357 34.4846C16.9265 34.4693 16.9173 34.4509 16.905 34.4355C16.8927 34.4202 16.8805 34.4049 16.8651 34.3895C16.8529 34.3742 16.8406 34.3589 16.8253 34.3466C16.8099 34.3343 16.7977 34.3221 16.7823 34.3098C16.7639 34.2975 16.7486 34.2822 16.7302 34.273C16.7241 34.2699 16.7179 34.2638 16.7118 34.2607C15.4515 33.5463 14.0349 32.5773 12.6611 31.2771C12.4925 31.1177 12.3238 30.9521 12.1582 30.7804L15.2461 28.2292C15.4975 28.4745 15.752 28.7106 16.0096 28.9283C16.7271 29.606 17.5367 30.1181 18.1714 30.4676C18.8123 30.8203 19.2784 31.0073 19.2968 31.0134C19.6126 31.1392 19.9683 30.9858 20.094 30.6731C20.2198 30.3572 20.0664 30.0015 19.7537 29.8758H19.7506C19.7138 29.8605 19.2814 29.6826 18.708 29.3637C18.1346 29.0448 17.4232 28.5818 16.8314 28.0206L16.8069 27.9992C15.7735 27.1161 14.7739 26.0122 13.9521 24.6538C13.4001 23.7338 12.9248 22.6913 12.5753 21.4831C12.2257 20.278 11.9957 18.9043 11.9558 17.3251V17.3282C11.9129 15.5742 10.4778 14.1851 8.73307 14.1851H8.65641C6.90857 14.225 5.5195 15.6539 5.5195 17.3956C5.5195 17.4232 5.5195 17.4508 5.5195 17.4784C5.61456 21.3482 6.5866 24.6262 8.03394 27.2663C9.11637 29.2441 10.4472 30.8632 11.8148 32.1603C13.1609 33.4359 14.5408 34.4018 15.7919 35.1377V47.115H15.795Z" fill="white"/>
<path d="M42.8804 32.1633C44.248 30.8632 45.5788 29.2472 46.6612 27.2694C48.1085 24.6292 49.0837 21.3543 49.1756 17.4815C49.1756 17.4539 49.1756 17.4263 49.1756 17.3987C49.1756 15.657 47.7866 14.228 46.0387 14.182H45.9621C45.0912 14.182 44.294 14.5316 43.7113 15.0958C43.1287 15.66 42.7608 16.4512 42.7393 17.3251V17.322C42.6964 18.9012 42.4695 20.2719 42.1199 21.48C42.0432 21.7468 41.9512 22.0136 41.8592 22.2834C41.7519 22.5993 41.5925 22.9764 41.4484 23.2984C41.3042 23.6173 41.1662 23.8902 41.1172 23.9822C41.0344 24.1355 40.8903 24.387 40.7952 24.5648C40.5499 25.0309 40.0102 25.7669 39.7373 26.0919C39.1394 26.8125 38.523 27.4564 37.8883 27.9961L37.8852 27.9992C37.3026 28.5051 36.5575 28.959 35.7203 29.2871C34.8832 29.6121 33.951 29.8114 32.9882 29.8114C32.1664 29.8114 31.317 29.6673 30.4707 29.3392C30.1549 29.2165 29.7991 29.3729 29.6765 29.6888C29.5538 30.0046 29.7102 30.3603 30.0261 30.483C31.0196 30.8693 32.0223 31.038 32.9882 31.038C34.1197 31.038 35.196 30.808 36.165 30.4308C37.1309 30.0537 37.9895 29.5293 38.6855 28.9314C38.9431 28.7106 39.1946 28.4745 39.4429 28.2292L42.5369 30.7865C42.3713 30.9582 42.2027 31.1238 42.034 31.2833C40.6603 32.5834 39.2436 33.5524 37.9833 34.2669C37.9772 34.2699 37.9711 34.2761 37.9619 34.2822C37.9465 34.2914 37.9312 34.3037 37.9159 34.3159C37.8975 34.3282 37.8791 34.3435 37.8637 34.3589C37.8515 34.3711 37.8423 34.3803 37.83 34.3926C37.8147 34.411 37.7994 34.4294 37.784 34.4478C37.7748 34.4601 37.7687 34.4723 37.7595 34.4846C37.7472 34.5061 37.735 34.5275 37.7258 34.549C37.7196 34.5613 37.7135 34.5766 37.7104 34.5919C37.7012 34.6164 37.6951 34.6379 37.689 34.6624C37.6859 34.6778 37.6828 34.69 37.6828 34.7054C37.6798 34.733 37.6767 34.7575 37.6736 34.7851C37.6736 34.7912 37.6706 34.7974 37.6706 34.8004V52.3831C37.6706 52.9657 37.4375 53.487 37.0542 53.8672C36.6709 54.2475 36.1527 54.4805 35.5701 54.4836L35.5026 54.4866H35.4996C35.3984 54.4958 33.117 54.7197 19.1986 55.4342C20.4681 49.3995 20.8882 45.3611 20.8882 42.3805C20.8882 39.4736 20.4865 37.5632 20.1186 35.8614C20.0266 35.4382 19.9836 35.0181 19.9836 34.6287C19.9836 34.227 20.0327 33.8529 20.1216 33.5401C20.2106 33.2274 20.3424 32.9759 20.4896 32.8011C20.7104 32.5436 20.6766 32.1572 20.4191 31.9364C20.1615 31.7156 19.7751 31.7494 19.5543 32.007C19.2661 32.3473 19.0668 32.7582 18.9411 33.2028C18.8153 33.6475 18.7571 34.1289 18.754 34.6287C18.754 35.1132 18.8092 35.6161 18.9165 36.119C19.2814 37.8208 19.6586 39.584 19.6586 42.3805C19.6586 45.0943 19.2937 48.7924 18.1837 54.2597C17.9016 54.1187 17.6532 53.9224 17.46 53.674C17.181 53.3153 17.0154 52.8707 17.0154 52.38V51.779C17.0154 51.4417 16.7394 51.1657 16.4021 51.1657C16.0648 51.1657 15.7888 51.4417 15.7888 51.779V52.38C15.7888 53.1528 16.0525 53.8672 16.4972 54.4314C16.8651 54.9037 17.3619 55.2686 17.9322 55.4863C17.8985 55.6427 17.8678 55.796 17.8341 55.9554C17.7942 56.1425 17.8433 56.3387 17.966 56.4829C18.0886 56.627 18.2757 56.7067 18.4658 56.6975C26.0214 56.3111 30.3082 56.0628 32.7061 55.9125C35.0365 55.7653 35.5824 55.7101 35.6314 55.704C37.4406 55.6703 38.8971 54.1984 38.8971 52.38V35.1408C40.1543 34.4049 41.5311 33.4359 42.8804 32.1633Z" fill="white"/>
<path d="M32.5661 24.4152C32.8381 21.5337 30.7228 18.9773 27.8413 18.7052C24.9598 18.4332 22.4033 20.5485 22.1313 23.43C21.8592 26.3115 23.9746 28.8679 26.8561 29.14C29.7376 29.4121 32.294 27.2967 32.5661 24.4152Z" fill="white"/>
<path d="M22.1945 48.4796C21.8541 48.4796 21.5812 48.7556 21.5812 49.0929C21.5812 49.4332 21.8572 49.7061 22.1945 49.7061C22.5349 49.7061 22.8078 49.4302 22.8078 49.0929C22.8109 48.7556 22.5349 48.4796 22.1945 48.4796Z" fill="white"/>
<path d="M23.2524 46.0755C23.2524 45.7352 22.9764 45.4622 22.6391 45.4622C22.2988 45.4622 22.0259 45.7382 22.0259 46.0755C22.0259 46.4159 22.3018 46.6888 22.6391 46.6888C22.9764 46.6888 23.2524 46.4159 23.2524 46.0755Z" fill="white"/>
<path d="M23.694 43.0582C23.694 42.7178 23.418 42.4449 23.0807 42.4449C22.7403 42.4449 22.4674 42.7209 22.4674 43.0582C22.4674 43.3986 22.7434 43.6715 23.0807 43.6715C23.418 43.6715 23.694 43.3955 23.694 43.0582Z" fill="white"/>
<path d="M23.0776 39.4245C22.7373 39.4245 22.4644 39.7005 22.4644 40.0378C22.4644 40.3782 22.7403 40.6511 23.0776 40.6511C23.418 40.6511 23.6909 40.3751 23.6909 40.0378C23.694 39.7005 23.418 39.4245 23.0776 39.4245Z" fill="white"/>
<path d="M22.6361 37.6338C22.9764 37.6338 23.2494 37.3578 23.2494 37.0205C23.2494 36.6801 22.9734 36.4072 22.6361 36.4072C22.2957 36.4072 22.0228 36.6832 22.0228 37.0205C22.0228 37.3609 22.2988 37.6338 22.6361 37.6338Z" fill="white"/>
<path d="M21.4249 34.0032C21.4249 34.3435 21.7008 34.6164 22.0381 34.6164C22.3785 34.6164 22.6514 34.3405 22.6514 34.0032C22.6514 33.6628 22.3754 33.3899 22.0381 33.3899C21.6978 33.3868 21.4249 33.6628 21.4249 34.0032Z" fill="white"/>
<path d="M24.3257 29.9034C24.3257 30.2438 24.6016 30.5167 24.9389 30.5167C25.2793 30.5167 25.5522 30.2407 25.5522 29.9034C25.5522 29.563 25.2762 29.2901 24.9389 29.2901C24.6016 29.2871 24.3257 29.563 24.3257 29.9034Z" fill="white"/>
<path d="M21.4248 31.5961C21.7652 31.5961 22.0381 31.3201 22.0381 30.9828C22.0381 30.6424 21.7622 30.3695 21.4248 30.3695C21.0845 30.3695 20.8116 30.6455 20.8116 30.9828C20.8085 31.3231 21.0845 31.5961 21.4248 31.5961Z" fill="white"/>
<path d="M23.9209 30.8724C23.9209 30.532 23.6449 30.2591 23.3076 30.2591C22.9672 30.2591 22.6943 30.5351 22.6943 30.8724C22.6943 31.2128 22.9703 31.4857 23.3076 31.4857C23.6449 31.4857 23.9209 31.2128 23.9209 30.8724Z" fill="white"/>
<path d="M17.0215 48.6421C17.0215 48.3048 16.7455 48.0288 16.4082 48.0288C16.0709 48.0288 15.795 48.3048 15.795 48.6421V49.4424H17.0215V48.6421Z" fill="white"/>
<path d="M156.714 42.0126C157.622 41.0681 158.152 39.7956 158.152 38.247C158.155 36.1067 157.293 34.6318 155.923 33.7088C154.552 32.7827 152.685 32.4025 150.658 32.3994H143.899V53.3919H146.966V53.3153V44.1253H149.965L155.263 53.3981H158.977L153.135 43.8095C154.586 43.5427 155.828 42.9355 156.714 42.0126ZM146.966 41.5281V35.0273H150.452C151.71 35.0273 152.869 35.2267 153.703 35.7265C154.537 36.2294 155.055 37.0174 155.055 38.247C155.052 39.4767 154.534 40.2801 153.675 40.7983C152.816 41.3134 151.605 41.5281 150.244 41.5281H146.966Z" fill="white"/>
<path d="M168.798 45.9621L173.892 39.2896H170.46L167.054 44.0333L163.681 39.2896H160.068L165.22 45.9897L159.569 53.395H163.092L166.995 48.0043L170.841 53.395H174.481L168.798 45.9621Z" fill="white"/>
<path d="M67.8806 45.8271C67.5494 45.8271 67.2827 46.0939 67.2827 46.4251C67.2827 46.7563 67.5494 47.023 67.8806 47.023C68.2118 47.023 68.4786 46.7563 68.4786 46.4251C68.4816 46.0939 68.2118 45.8271 67.8806 45.8271Z" fill="white"/>
<path d="M70.1037 47.02C70.434 47.02 70.7017 46.7523 70.7017 46.422C70.7017 46.0918 70.434 45.8241 70.1037 45.8241C69.7735 45.8241 69.5058 46.0918 69.5058 46.422C69.5058 46.7523 69.7735 47.02 70.1037 47.02Z" fill="white"/>
<path d="M72.3299 45.8241C71.9988 45.8241 71.732 46.0909 71.732 46.422C71.732 46.7532 71.9988 47.02 72.3299 47.02C72.6611 47.02 72.9279 46.7532 72.9279 46.422C72.931 46.0909 72.6611 45.8241 72.3299 45.8241Z" fill="white"/>
<path d="M59.5002 48.7985L59.4572 48.8598C58.0314 50.9848 55.7623 51.917 53.3981 51.917C48.0871 51.917 44.8244 47.7222 44.8214 42.8988C44.8244 38.0753 48.0564 33.8805 53.3981 33.8805C56.0198 33.8805 58.0896 35.2542 58.9574 36.582L59.0004 36.6495L60.8923 35.2604L60.8494 35.1991C59.3867 33.1415 56.4522 31.872 53.3705 31.869C50.2458 31.869 47.5106 33.0311 45.5573 34.9936C43.604 36.953 42.4327 39.7128 42.4327 42.8957C42.4327 46.0786 43.5795 48.8353 45.5236 50.7978C47.4677 52.7603 50.2029 53.9224 53.3705 53.9224C57.1329 53.9224 59.8375 52.1132 61.2358 50.0036L61.2787 49.9392L61.2143 49.8962L59.5002 48.7985Z" fill="white"/>
<path d="M86.6622 39.1148C84.7549 39.1179 82.8047 40.1727 81.9676 41.709C81.9584 41.1019 81.9063 40.2034 81.8511 39.538L81.8449 39.4675H81.7744H79.7782L79.7874 39.5503C79.8763 40.4886 79.9039 41.8409 79.9039 42.5737V53.395H82.0596V46.2534C82.0596 44.4289 82.5717 43.1011 83.3352 42.2303C84.1018 41.3594 85.1229 40.9424 86.1624 40.9424C87.5883 40.9455 88.4898 41.4177 89.051 42.2395C89.6121 43.0643 89.8267 44.2572 89.8237 45.6922V53.3919H91.9794V44.8674C91.9794 43.1471 91.5409 41.709 90.6547 40.6971C89.7654 39.6883 88.4285 39.1118 86.6622 39.1148Z" fill="white"/>
<path d="M105.352 50.1232C104.567 51.1657 103.389 51.8863 101.675 51.8894C100.09 51.8894 98.8021 51.2945 97.9097 50.3163C97.0144 49.3382 96.5145 47.9736 96.5145 46.4312C96.5145 44.8735 97.0236 43.5028 97.9251 42.5216C98.8266 41.5403 100.121 40.9455 101.706 40.9455C103.181 40.9455 104.542 41.6998 105.174 42.7332L105.217 42.8037L105.284 42.7546L106.907 41.5894L106.861 41.5281C105.665 39.9152 103.552 39.1148 101.678 39.1118C99.4368 39.1118 97.5755 39.8906 96.2784 41.2C94.9783 42.5063 94.2423 44.3369 94.2423 46.4312C94.2423 48.5256 94.9783 50.3562 96.2784 51.6625C97.5786 52.9688 99.4399 53.7507 101.678 53.7507C104.082 53.7507 105.787 52.797 106.977 51.3374L107.029 51.2761L105.404 50.0649L105.352 50.1232Z" fill="white"/>
<path d="M115.394 39.1148C113.416 39.1148 111.659 39.8968 110.399 41.203C109.139 42.5093 108.372 44.34 108.372 46.4343C108.372 48.5286 109.139 50.3593 110.421 51.6656C111.705 52.9718 113.505 53.7538 115.572 53.7538C117.857 53.7538 119.917 52.889 121.549 50.81L121.595 50.7487L119.966 49.47L119.92 49.5436C119.169 50.7579 117.602 51.8925 115.569 51.8925C112.812 51.8925 110.715 49.7337 110.617 47.0414H122.027L122.033 46.9709C122.064 46.6152 122.064 46.2871 122.064 46.0234C122.064 44.1253 121.493 42.3989 120.371 41.1448C119.246 39.8876 117.574 39.1118 115.394 39.1148ZM110.651 45.2967C110.865 43.0122 112.788 40.9455 115.391 40.9455C116.802 40.9455 117.89 41.4177 118.645 42.2027C119.384 42.9723 119.801 44.0486 119.871 45.2967H110.651Z" fill="white"/>
<path d="M130.318 39.1148C128.411 39.1148 126.734 40.1758 125.918 41.7059C125.909 41.0988 125.857 40.2034 125.802 39.538L125.795 39.4675H123.729L123.738 39.5503C123.827 40.4886 123.854 41.8408 123.854 42.5737V53.395H126.01V46.2534C126.01 44.4258 126.485 43.1441 127.212 42.3192C127.939 41.4943 128.923 41.1202 129.966 41.1202C130.226 41.1202 130.518 41.1417 130.772 41.1754C131.027 41.2092 131.244 41.2521 131.352 41.292L131.441 41.3257L131.729 39.2804L131.665 39.262C131.241 39.1424 130.821 39.1148 130.318 39.1148Z" fill="white"/>
<path d="M141.544 51.2271L141.44 51.2792C140.922 51.5398 140.281 51.7115 139.738 51.7115C139.143 51.7115 138.653 51.595 138.309 51.2424C137.966 50.8898 137.754 50.2795 137.754 49.2584V41.2981H141.639V41.2214V39.4675H137.754V35.5824H135.599V39.4675H132.744V41.2981H135.599V49.8165C135.599 51.3497 136.123 52.2972 136.844 52.8553C137.561 53.4103 138.463 53.5728 139.208 53.5728C140.128 53.5728 140.876 53.4226 141.59 53.1558L141.643 53.1374L141.544 51.2271Z" fill="white"/>
<path d="M73.8509 39.1731H66.3628C65.3662 39.1731 64.4555 39.5809 63.8054 40.231C63.1522 40.8811 62.7444 41.7918 62.7475 42.7884V50.0588C62.7475 51.0553 63.1553 51.9661 63.8054 52.6161C64.4555 53.2693 65.3662 53.6771 66.3628 53.674H73.8509C74.8474 53.674 75.7582 53.2662 76.4082 52.6161C77.0614 51.9661 77.4692 51.0553 77.4661 50.0588V42.7884C77.4661 41.7918 77.0583 40.8811 76.4082 40.231C75.7582 39.5779 74.8474 39.1731 73.8509 39.1731ZM75.3197 50.0588C75.3197 50.4697 75.1571 50.8284 74.8904 51.0983C74.6205 51.3651 74.2587 51.5276 73.8509 51.5276H66.3628C65.9519 51.5276 65.5931 51.3651 65.3232 51.0983C65.0565 50.8284 64.894 50.4666 64.894 50.0588V42.7884C64.894 42.3775 65.0565 42.0187 65.3232 41.7489C65.5931 41.4821 65.9549 41.3196 66.3628 41.3196H73.8509C74.2618 41.3196 74.6205 41.4821 74.8904 41.7489C75.1571 42.0187 75.3197 42.3805 75.3197 42.7884V50.0588Z" fill="white"/>
</svg>
