<svg width="214" height="34" viewBox="0 0 214 34" fill="none" xmlns="http://www.w3.org/2000/svg">
<g clip-path="url(#clip0_23_2)">
<path d="M9.61138 29.4357C7.68768 29.4312 5.75954 29.5559 3.88037 28.9859C2.13034 28.456 0.865687 27.4318 0.442652 25.5838C0.184378 24.4617 -0.332168 22.676 0.625227 22.3687C2.2194 21.8566 5.22072 21.4781 5.66157 22.4623C6.9663 25.3834 9.15271 24.3726 11.1076 24.5329C12.3811 24.6353 12.9645 23.8605 13.0001 22.6047C13.0357 21.4381 12.7686 20.5564 11.4059 20.4005C9.42435 20.1734 7.44722 19.9062 5.46564 19.6747C2.21495 19.2873 0.745458 17.8222 0.389218 14.576C-0.256467 8.71139 1.87652 6.2667 7.75003 6.29341C10.03 6.30232 12.3366 5.99506 14.5898 6.67192C16.0014 7.09495 17.1637 7.82079 17.8583 9.13888C19.2877 11.8419 18.5174 13.1733 15.5428 13.1332C14.2514 13.1154 12.773 13.672 12.1095 11.7127C11.8201 10.8533 7.61198 10.9067 6.8995 11.6147C5.95547 12.5543 6.39631 14.4558 7.78565 14.7675C9.72715 15.1994 11.7266 15.3597 13.7037 15.6224C17.9296 16.1791 19.457 18.2764 19.1764 23.1391C18.9449 27.1557 16.7941 29.3377 12.9422 29.4401C11.8334 29.4624 10.7246 29.4357 9.61138 29.4357Z" fill="white"/>
<path d="M21.8393 21.0596C21.5899 13.4405 23.6561 12.0912 33.052 13.3024C35.4343 13.6097 36.4986 15.2707 36.7079 17.6708C36.8058 18.7974 36.5298 19.363 35.2963 19.1759C33.7511 18.9399 31.774 20.0265 31.0882 17.3591C30.8655 16.4952 29.3693 16.8515 28.4208 16.9005C27.459 16.9494 27.2007 17.6842 27.1606 18.4501C27.0805 19.9997 27.0271 21.5583 27.0849 23.1124C27.125 24.1945 27.0849 25.4502 28.7326 25.4947C30.1174 25.5348 31.4711 25.6417 31.578 23.6468C31.6537 22.3064 32.7981 22.774 33.4705 22.8363C34.5482 22.9387 36.1869 22.0659 36.601 23.3974C37.1042 25.0138 36.6099 26.7995 35.225 28.0641C33.0787 30.0279 25.4819 29.9789 23.4068 28.0196C22.4895 27.1557 22.1287 26.0336 22.0174 24.8357C21.9016 23.58 21.8927 22.3198 21.8393 21.0596Z" fill="white"/>
<path d="M89.9435 29.4089C84.9739 29.4 83.8696 28.2779 83.8607 23.2415C83.8607 21.7587 83.8785 20.2758 83.8518 18.7974C83.8384 17.9202 84.2258 16.9361 82.6094 16.8025C81.5763 16.7134 82.1374 15.4532 82.0795 14.7229C82.035 14.1529 81.7143 13.2 82.7786 13.1866C83.9052 13.1733 83.9676 12.5187 83.8473 11.7394C83.6247 10.2922 84.2971 9.90923 85.6018 10.0651C86.2609 10.1452 86.9377 10.1141 87.6012 10.0695C88.5096 10.0116 89.0707 10.2922 88.9059 11.303C88.621 13.0263 89.5694 13.2891 90.9677 13.1599C91.7781 13.0842 92.6197 13.2668 93.4079 13.1243C95.581 12.7324 95.8927 13.859 95.7413 15.6402C95.6611 16.5709 95.4029 17.034 94.4321 16.9093C94.3609 16.9004 94.2852 16.9004 94.2095 16.9093C92.4862 17.1186 89.752 16.0766 89.231 17.3725C88.4161 19.403 88.995 22.008 89.0262 24.3681C89.0395 25.2988 89.6763 25.615 90.5179 25.6283C91.4664 25.6461 92.121 25.2721 92.1121 24.239C92.0898 21.5227 94.1382 22.8007 95.3094 22.6626C97.046 22.4578 96.3469 23.9362 96.338 24.6932C96.2846 28.3357 94.7705 29.4178 89.9435 29.4089Z" fill="white"/>
<path d="M102.154 18.0048C102.154 19.8572 102.105 21.7097 102.167 23.5577C102.229 25.4457 103.271 26.51 105.119 26.8841C106.887 27.2447 108.664 27.2225 110.432 27.0666C113.62 26.7816 114.413 25.9489 114.586 22.765C114.64 21.7587 114.684 21.1263 115.994 21.1709C117.427 21.2154 117.231 22.0971 117.223 22.9788C117.169 27.3071 115.366 29.2174 111.033 29.4C109.109 29.4802 107.172 29.5113 105.257 29.3688C101.757 29.1061 99.9538 27.601 99.6332 24.2345C99.2236 19.9641 99.2057 15.6402 99.651 11.3698C99.9672 8.37293 101.37 6.94798 104.291 6.51604C107.288 6.07074 110.347 5.96831 113.335 6.71196C115.931 7.3621 117.668 10.2655 117.245 12.8838C117.107 13.7299 116.648 13.7922 116.02 13.7566C115.41 13.721 114.791 13.9659 114.555 12.9239C113.66 9.02307 113.299 8.75144 109.724 8.63566C101.82 8.38629 102.011 9.90031 102.069 16.0054C102.073 16.6733 102.069 17.3368 102.069 18.0048C102.091 18.0048 102.122 18.0048 102.154 18.0048Z" fill="white"/>
<path d="M45.3957 14.714C46.3353 13.6186 47.3995 12.964 48.8512 12.9507C52.1375 12.915 54.8004 16.798 53.1973 19.6702C52.516 20.8904 50.8996 19.9641 49.7284 20.1734C48.918 20.3204 48.5039 19.9686 48.5128 19.0824C48.5217 18.036 48.21 17.1142 46.932 17.1365C45.4536 17.1587 45.409 18.3432 45.3868 19.3674C45.3244 21.9591 45.2265 24.5596 45.3823 27.1424C45.4892 28.8924 44.8524 29.3822 43.2627 29.1507C42.6838 29.0661 42.0737 29.0883 41.4859 29.1462C40.4929 29.2486 40.2347 28.8167 40.2436 27.8727C40.2836 23.4286 40.2881 18.9845 40.2391 14.5404C40.2257 13.4939 40.5419 12.9061 41.6017 13.1733C42.902 13.4939 44.9192 11.9844 45.3957 14.714Z" fill="white"/>
<path d="M177.098 29.4134C176.082 29.4802 174.693 29.2931 173.313 29.0082C171.523 28.6386 170.699 27.4808 170.547 25.7397C170.498 25.1563 170.28 24.4349 171.211 24.4394C171.848 24.4438 172.774 23.9941 172.934 25.2053C173.166 26.9375 174.457 27.2136 175.869 27.2492C176.977 27.2804 178.091 27.2448 179.204 27.2537C180.852 27.2626 181.836 26.6748 181.929 24.8179C182.023 22.9209 181.177 22.0615 179.395 21.9546C177.547 21.8477 175.686 21.87 173.847 21.6874C171.5 21.4514 170.725 20.4851 170.632 18.0092C170.516 14.9545 171.171 13.8368 173.535 13.3336C176.167 12.777 178.817 12.7458 181.462 13.3291C182.561 13.5696 183.363 14.144 183.71 15.2306C183.893 15.8006 184.472 16.5798 183.595 16.9049C183.002 17.1231 182.196 17.2701 181.56 16.5576C180.241 15.0836 175.365 14.3979 173.851 15.431C172.832 16.1256 172.907 17.2077 173.014 18.2497C173.117 19.2383 173.802 19.599 174.711 19.6569C176.706 19.7904 178.705 19.9107 180.696 20.0665C183.167 20.2625 184.191 21.2466 184.445 23.5978C184.761 26.5946 183.768 28.3936 181.47 29.066C180.166 29.4624 178.83 29.3822 177.098 29.4134Z" fill="white"/>
<path d="M55.8736 21.0373C55.8736 18.9711 55.9627 16.896 55.8424 14.8387C55.7623 13.4494 56.2343 12.9373 57.5836 13.1332C57.9442 13.1866 58.3272 13.1911 58.6879 13.1332C60.5849 12.8215 61.2573 13.4627 61.1593 15.5022C60.9723 19.3318 60.999 23.1836 61.1504 27.0132C61.2261 28.8478 60.5715 29.3733 58.9061 29.1417C58.3985 29.0705 57.8685 29.0794 57.3564 29.1417C56.2209 29.2753 55.7979 28.8701 55.8469 27.6767C55.9404 25.468 55.8736 23.2504 55.8736 21.0373Z" fill="white"/>
<path d="M140.913 14.9055C142.502 13.102 144.217 12.8438 146.051 12.9774C148.719 13.1688 150.469 15.4354 150.09 18.0627C149.974 18.8598 149.507 18.8108 149.008 18.7974C148.407 18.7796 147.561 19.078 147.601 17.9558C147.677 15.8495 146.608 15.0524 144.577 15.1326C142.525 15.2128 141.469 16.2325 141.193 18.2141C140.761 21.3134 141.1 24.4305 140.988 27.5342C140.962 28.3179 141.202 29.1507 139.862 29.164C138.619 29.1774 138.619 28.5317 138.624 27.6366C138.646 23.2638 138.628 18.8909 138.637 14.5181C138.637 13.8858 138.454 13.1777 139.532 13.1154C140.592 13.0575 141.068 13.4048 140.913 14.9055Z" fill="white"/>
<path d="M57.9665 6.52942C59.8011 6.59621 61.2083 6.02623 61.2172 8.45756C61.2261 10.8755 59.9258 10.5906 58.4519 10.546C57.1427 10.5015 55.7623 11.0403 55.7712 8.62233C55.7756 6.24888 56.9646 6.40919 57.9665 6.52942Z" fill="white"/>
<path d="M79.951 18.8865C79.9064 16.66 79.5814 14.4602 77.2614 13.4672C74.9146 12.4608 72.6213 12.7057 70.6531 14.6472C69.905 11.8953 67.7408 13.3069 66.2491 13.2445C64.7529 13.1822 65.4342 14.7185 65.4253 15.5245C65.3585 20.7167 65.4965 25.9089 65.3362 31.0966C65.2739 33.096 65.8706 33.4567 67.7765 33.5368C70.1766 33.6393 70.8936 32.8377 70.5551 30.6023C70.426 29.7607 70.5329 28.8879 70.5329 27.739C72.8529 29.6494 75.2174 29.97 77.5508 28.7231C79.8307 27.503 79.951 25.1652 79.9599 22.8897C79.9688 21.5538 79.9821 20.2179 79.951 18.8865ZM74.7187 23.7491C74.6029 25.085 73.739 25.4235 72.5634 25.3923C71.33 25.3567 70.6086 24.8001 70.5819 23.5265C70.5507 22.1283 70.5507 20.7256 70.5551 19.3273C70.5551 18.0315 70.8268 17.034 72.4655 16.9361C74.122 16.8381 74.7454 17.6441 74.8211 19.1225C74.8567 19.8572 74.928 20.6009 74.928 21.3356C74.8567 22.1372 74.7899 22.9432 74.7187 23.7491Z" fill="white"/>
<path d="M166.183 8.07904C166.188 7.16617 166.125 6.52494 164.919 6.53384C163.685 6.54275 163.681 7.24187 163.69 8.11911C163.712 10.2566 163.699 12.394 163.699 14.9144C163.057 14.3711 162.812 14.0995 162.51 13.9214C160.078 12.4652 157.513 12.6256 155.055 13.6631C152.793 14.6205 152.606 16.847 152.553 18.9488C152.504 20.9438 152.473 22.961 152.709 24.9336C153.043 27.7034 154.223 28.8434 156.952 29.2798C159.401 29.6716 161.775 29.4846 163.788 27.3872C163.823 28.5673 163.952 29.2308 165.137 29.1595C166.308 29.0883 166.174 28.3714 166.174 27.6322C166.174 21.1174 166.166 14.5982 166.183 8.07904ZM163.641 23.2326C163.489 25.6595 162.314 26.893 159.967 27.178C156.253 27.6322 155.135 26.648 155.082 22.8764C155.073 22.2841 155.082 21.6919 155.082 21.0996C155.082 20.5831 155.078 20.0621 155.082 19.5455C155.127 15.903 155.745 15.1682 158.774 15.1459C162.22 15.1192 163.56 16.3438 163.672 19.6836C163.712 20.8636 163.716 22.0526 163.641 23.2326Z" fill="white"/>
<path d="M133.761 15.8896C133.725 14.5715 132.879 13.6943 131.592 13.3959C128.889 12.7681 126.169 12.7324 123.448 13.3514C122.366 13.5963 121.524 14.1663 121.204 15.2662C121.039 15.8362 120.424 16.6555 121.315 16.9806C121.969 17.2211 123.052 17.5239 123.39 16.4195C123.795 15.0881 124.864 15.1059 125.875 14.9945C130.889 14.429 131.668 15.1549 131.463 20.3292C128.702 18.882 125.915 19.0334 123.118 19.5143C120.901 19.8973 120.398 21.5761 120.371 23.4864C120.344 25.6372 120.099 28.0062 122.753 28.8879C125.038 29.6494 127.42 29.6538 129.767 28.9903C130.586 28.7588 131.312 27.788 132.269 29.0126C132.559 29.3822 133.944 29.4935 133.93 28.1131C133.886 24.0386 133.872 19.9641 133.761 15.8896ZM128.538 27.1156C128.039 27.218 127.509 27.178 127.059 27.1958C125.603 27.129 124.071 27.316 123.198 25.9222C121.92 23.8783 123.15 21.536 125.581 21.3089C126.529 21.2198 127.496 21.2822 128.449 21.349C130.185 21.4781 131.548 21.8522 131.601 24.1499C131.65 26.4699 130.163 26.7772 128.538 27.1156Z" fill="white"/>
<path d="M191.516 16.7228C191.516 19.7204 191.568 22.718 191.489 25.7112C191.458 26.9138 191.753 27.3658 193.038 27.3176C195.738 27.221 198.45 27.3307 201.153 27.2693C202.338 27.2429 202.869 27.5633 202.874 28.858C202.878 30.1615 202.483 30.6926 201.118 30.6662C197.392 30.6004 193.662 30.6048 189.936 30.6662C188.636 30.6882 188.119 30.3108 188.127 28.9326C188.18 21.9149 188.18 14.8971 188.127 7.87928C188.119 6.55384 188.527 6.12812 189.878 6.11056C191.336 6.09301 191.564 6.71184 191.537 7.9495C191.472 10.8725 191.516 13.7999 191.516 16.7228Z" fill="white"/>
<path d="M207.667 11.5352C207.667 14.8927 207.614 18.2458 207.693 21.5989C207.724 22.9419 207.267 23.3369 205.937 23.3588C204.498 23.3808 204.256 22.7839 204.27 21.5331C204.318 15.9899 204.151 10.4424 204.357 4.90365C204.445 2.5205 203.668 1.97189 201.483 2.16061C199.235 2.35372 196.962 2.18694 194.702 2.21328C193.749 2.22205 192.924 2.19133 192.973 0.892228C193.021 -0.380543 193.982 0.0846764 194.579 0.0758987C198.371 0.0363989 202.167 0.137343 205.959 0.0144549C207.517 -0.0338226 207.732 0.58501 207.697 1.90606C207.614 5.11432 207.667 8.32696 207.667 11.5352Z" fill="white"/>
<path d="M209.435 24.614C209.435 17.1091 209.448 9.6041 209.418 2.09914C209.413 1.14237 209.677 0.865876 210.664 0.962431C214.223 1.31354 214.36 1.48032 213.675 4.92557C212.376 11.4781 211.107 18.0395 209.826 24.5965C209.699 24.6009 209.567 24.6052 209.435 24.614Z" fill="white"/>
<path d="M188 0.286555V4.35064C188.636 5.62341 189.756 5.61902 189.756 5.61902C191.002 5.64536 191.511 4.35942 191.511 4.35942V0.282166H188V0.286555ZM191.046 4.36381C191.046 4.36381 190.629 5.25914 189.764 5.22403C189.764 5.22403 188.878 5.11869 188.413 4.36381V2.40199H191.046V4.36381Z" fill="white"/>
<path d="M205.889 24.0479C204.88 24.0479 204.059 24.8642 204.059 25.878V29.2004C204.059 30.2098 204.875 31.0306 205.889 31.0306C206.903 31.0306 207.719 30.2142 207.719 29.2004V25.878C207.715 24.8686 206.898 24.0479 205.889 24.0479ZM207.307 29.7095C207.149 30.5566 206.345 30.7848 205.841 30.776C205.38 30.7672 204.59 30.4776 204.467 29.6963C204.467 29.0951 204.467 28.4938 204.467 27.8925H207.311V29.7095H207.307Z" fill="white"/>
<path d="M197.5 8C195.57 8 194 9.75361 194 11.9315V19.0685C194 21.237 195.561 23 197.5 23C199.439 23 201 21.2464 201 19.0685V11.9315C200.992 9.76304 199.43 8 197.5 8ZM200.211 20.1622C199.909 21.9818 198.373 22.472 197.408 22.4532C196.526 22.4343 195.016 21.8121 194.781 20.1339C194.781 18.8422 194.781 17.5506 194.781 16.259H200.219V20.1622H200.211Z" fill="white"/>
</g>
<defs>
<clipPath id="clip0_23_2">
<rect width="213.93" height="33.5455" fill="white" transform="translate(0.0699539)"/>
</clipPath>
</defs>
</svg>
